<?xml version="1.0" encoding="utf-8"?>
<!-- Generator: Adobe Illustrator 24.3.0, SVG Export Plug-In . SVG Version: 6.00 Build 0)  -->
<svg version="1.1" id="Calque_1" xmlns="http://www.w3.org/2000/svg" xmlns:xlink="http://www.w3.org/1999/xlink" x="0px" y="0px"
	 width="138.61px" height="447.02px" viewBox="0 0 138.61 447.02" enable-background="new 0 0 138.61 447.02" xml:space="preserve">
<g id="QRCODE" >
	
	<g fill="cmyk(0%, 0%, 0%, 100%)">
		<rect x="7.42" y="396.38" width="1.1" height="1.1"/>
		<rect x="14.05" y="396.38" width="1.1" height="1.1"/>
		<rect x="16.26" y="396.38" width="1.1" height="1.1"/>
		<rect x="20.67" y="396.38" width="1.1" height="1.1"/>
		<rect x="21.78" y="396.38" width="1.1" height="1.1"/>
		<rect x="22.88" y="396.38" width="1.1" height="1.1"/>
		<rect x="26.2" y="396.38" width="1.1" height="1.1"/>
		<rect x="27.3" y="396.38" width="1.1" height="1.1"/>
		<rect x="28.41" y="396.38" width="1.1" height="1.1"/>
		<rect x="29.51" y="396.38" width="1.1" height="1.1"/>
		<rect x="30.61" y="396.38" width="1.1" height="1.1"/>
		<rect x="31.72" y="396.38" width="1.1" height="1.1"/>
		<rect x="35.03" y="396.38" width="1.1" height="1.1"/>
		<rect x="41.66" y="396.38" width="1.1" height="1.1"/>
		<rect x="44.97" y="396.38" width="1.1" height="1.1"/>
		<rect x="51.6" y="396.38" width="1.1" height="1.1"/>
		<rect x="7.42" y="397.49" width="1.1" height="1.1"/>
		<rect x="9.63" y="397.49" width="1.1" height="1.1"/>
		<rect x="10.74" y="397.49" width="1.1" height="1.1"/>
		<rect x="11.84" y="397.49" width="1.1" height="1.1"/>
		<rect x="14.05" y="397.49" width="1.1" height="1.1"/>
		<rect x="16.26" y="397.49" width="1.1" height="1.1"/>
		<rect x="17.36" y="397.49" width="1.1" height="1.1"/>
		<rect x="18.47" y="397.49" width="1.1" height="1.1"/>
		<rect x="22.88" y="397.49" width="1.1" height="1.1"/>
		<rect x="25.09" y="397.49" width="1.1" height="1.1"/>
		<rect x="26.2" y="397.49" width="1.1" height="1.1"/>
		<rect x="30.61" y="397.49" width="1.1" height="1.1"/>
		<rect x="36.14" y="397.49" width="1.1" height="1.1"/>
		<rect x="39.45" y="397.49" width="1.1" height="1.1"/>
		<rect x="40.55" y="397.49" width="1.1" height="1.1"/>
		<rect x="42.76" y="397.49" width="1.1" height="1.1"/>
		<rect x="44.97" y="397.49" width="1.1" height="1.1"/>
		<rect x="47.18" y="397.49" width="1.1" height="1.1"/>
		<rect x="48.28" y="397.49" width="1.1" height="1.1"/>
		<rect x="49.39" y="397.49" width="1.1" height="1.1"/>
		<rect x="51.6" y="397.49" width="1.1" height="1.1"/>
		<rect x="7.42" y="398.59" width="1.1" height="1.1"/>
		<rect x="9.63" y="398.59" width="1.1" height="1.1"/>
		<rect x="10.74" y="398.59" width="1.1" height="1.1"/>
		<rect x="11.84" y="398.59" width="1.1" height="1.1"/>
		<rect x="14.05" y="398.59" width="1.1" height="1.1"/>
		<rect x="16.26" y="398.59" width="1.1" height="1.1"/>
		<rect x="18.47" y="398.59" width="1.1" height="1.1"/>
		<rect x="23.99" y="398.59" width="1.1" height="1.1"/>
		<rect x="25.09" y="398.59" width="1.1" height="1.1"/>
		<rect x="29.51" y="398.59" width="1.1" height="1.1"/>
		<rect x="32.82" y="398.59" width="1.1" height="1.1"/>
		<rect x="35.03" y="398.59" width="1.1" height="1.1"/>
		<rect x="36.14" y="398.59" width="1.1" height="1.1"/>
		<rect x="38.34" y="398.59" width="1.1" height="1.1"/>
		<rect x="40.55" y="398.59" width="1.1" height="1.1"/>
		<rect x="44.97" y="398.59" width="1.1" height="1.1"/>
		<rect x="47.18" y="398.59" width="1.1" height="1.1"/>
		<rect x="48.28" y="398.59" width="1.1" height="1.1"/>
		<rect x="49.39" y="398.59" width="1.1" height="1.1"/>
		<rect x="51.6" y="398.59" width="1.1" height="1.1"/>
		<rect x="7.42" y="399.7" width="1.1" height="1.1"/>
		<rect x="9.63" y="399.7" width="1.1" height="1.1"/>
		<rect x="10.74" y="399.7" width="1.1" height="1.1"/>
		<rect x="11.84" y="399.7" width="1.1" height="1.1"/>
		<rect x="14.05" y="399.7" width="1.1" height="1.1"/>
		<rect x="17.36" y="399.7" width="1.1" height="1.1"/>
		<rect x="18.47" y="399.7" width="1.1" height="1.1"/>
		<rect x="25.09" y="399.7" width="1.1" height="1.1"/>
		<rect x="27.3" y="399.7" width="1.1" height="1.1"/>
		<rect x="29.51" y="399.7" width="1.1" height="1.1"/>
		<rect x="31.72" y="399.7" width="1.1" height="1.1"/>
		<rect x="32.82" y="399.7" width="1.1" height="1.1"/>
		<rect x="36.14" y="399.7" width="1.1" height="1.1"/>
		<rect x="37.24" y="399.7" width="1.1" height="1.1"/>
		<rect x="40.55" y="399.7" width="1.1" height="1.1"/>
		<rect x="42.76" y="399.7" width="1.1" height="1.1"/>
		<rect x="44.97" y="399.7" width="1.1" height="1.1"/>
		<rect x="47.18" y="399.7" width="1.1" height="1.1"/>
		<rect x="48.28" y="399.7" width="1.1" height="1.1"/>
		<rect x="49.39" y="399.7" width="1.1" height="1.1"/>
		<rect x="51.6" y="399.7" width="1.1" height="1.1"/>
		<rect x="7.42" y="400.8" width="1.1" height="1.1"/>
		<rect x="14.05" y="400.8" width="1.1" height="1.1"/>
		<rect x="16.26" y="400.8" width="1.1" height="1.1"/>
		<rect x="17.36" y="400.8" width="1.1" height="1.1"/>
		<rect x="18.47" y="400.8" width="1.1" height="1.1"/>
		<rect x="19.57" y="400.8" width="1.1" height="1.1"/>
		<rect x="23.99" y="400.8" width="1.1" height="1.1"/>
		<rect x="27.3" y="400.8" width="1.1" height="1.1"/>
		<rect x="28.41" y="400.8" width="1.1" height="1.1"/>
		<rect x="33.93" y="400.8" width="1.1" height="1.1"/>
		<rect x="38.34" y="400.8" width="1.1" height="1.1"/>
		<rect x="39.45" y="400.8" width="1.1" height="1.1"/>
		<rect x="40.55" y="400.8" width="1.1" height="1.1"/>
		<rect x="41.66" y="400.8" width="1.1" height="1.1"/>
		<rect x="44.97" y="400.8" width="1.1" height="1.1"/>
		<rect x="51.6" y="400.8" width="1.1" height="1.1"/>
		<rect x="7.42" y="401.91" width="1.1" height="1.1"/>
		<rect x="8.53" y="401.91" width="1.1" height="1.1"/>
		<rect x="9.63" y="401.91" width="1.1" height="1.1"/>
		<rect x="10.74" y="401.91" width="1.1" height="1.1"/>
		<rect x="11.84" y="401.91" width="1.1" height="1.1"/>
		<rect x="12.94" y="401.91" width="1.1" height="1.1"/>
		<rect x="14.05" y="401.91" width="1.1" height="1.1"/>
		<rect x="16.26" y="401.91" width="1.1" height="1.1"/>
		<rect x="18.47" y="401.91" width="1.1" height="1.1"/>
		<rect x="20.67" y="401.91" width="1.1" height="1.1"/>
		<rect x="22.88" y="401.91" width="1.1" height="1.1"/>
		<rect x="25.09" y="401.91" width="1.1" height="1.1"/>
		<rect x="27.3" y="401.91" width="1.1" height="1.1"/>
		<rect x="29.51" y="401.91" width="1.1" height="1.1"/>
		<rect x="31.72" y="401.91" width="1.1" height="1.1"/>
		<rect x="33.93" y="401.91" width="1.1" height="1.1"/>
		<rect x="36.14" y="401.91" width="1.1" height="1.1"/>
		<rect x="38.34" y="401.91" width="1.1" height="1.1"/>
		<rect x="40.55" y="401.91" width="1.1" height="1.1"/>
		<rect x="42.76" y="401.91" width="1.1" height="1.1"/>
		<rect x="44.97" y="401.91" width="1.1" height="1.1"/>
		<rect x="46.07" y="401.91" width="1.1" height="1.1"/>
		<rect x="47.18" y="401.91" width="1.1" height="1.1"/>
		<rect x="48.28" y="401.91" width="1.1" height="1.1"/>
		<rect x="49.39" y="401.91" width="1.1" height="1.1"/>
		<rect x="50.49" y="401.91" width="1.1" height="1.1"/>
		<rect x="51.6" y="401.91" width="1.1" height="1.1"/>
		<rect x="22.88" y="403.01" width="1.1" height="1.1"/>
		<rect x="26.2" y="403.01" width="1.1" height="1.1"/>
		<rect x="27.3" y="403.01" width="1.1" height="1.1"/>
		<rect x="28.41" y="403.01" width="1.1" height="1.1"/>
		<rect x="29.51" y="403.01" width="1.1" height="1.1"/>
		<rect x="30.61" y="403.01" width="1.1" height="1.1"/>
		<rect x="31.72" y="403.01" width="1.1" height="1.1"/>
		<rect x="33.93" y="403.01" width="1.1" height="1.1"/>
		<rect x="36.14" y="403.01" width="1.1" height="1.1"/>
		<rect x="38.34" y="403.01" width="1.1" height="1.1"/>
		<rect x="39.45" y="403.01" width="1.1" height="1.1"/>
		<rect x="40.55" y="403.01" width="1.1" height="1.1"/>
		<rect x="41.66" y="403.01" width="1.1" height="1.1"/>
		<rect x="7.42" y="404.11" width="1.1" height="1.1"/>
		<rect x="8.53" y="404.11" width="1.1" height="1.1"/>
		<rect x="11.84" y="404.11" width="1.1" height="1.1"/>
		<rect x="12.94" y="404.11" width="1.1" height="1.1"/>
		<rect x="14.05" y="404.11" width="1.1" height="1.1"/>
		<rect x="17.36" y="404.11" width="1.1" height="1.1"/>
		<rect x="18.47" y="404.11" width="1.1" height="1.1"/>
		<rect x="19.57" y="404.11" width="1.1" height="1.1"/>
		<rect x="23.99" y="404.11" width="1.1" height="1.1"/>
		<rect x="25.09" y="404.11" width="1.1" height="1.1"/>
		<rect x="26.2" y="404.11" width="1.1" height="1.1"/>
		<rect x="28.41" y="404.11" width="1.1" height="1.1"/>
		<rect x="30.61" y="404.11" width="1.1" height="1.1"/>
		<rect x="31.72" y="404.11" width="1.1" height="1.1"/>
		<rect x="39.45" y="404.11" width="1.1" height="1.1"/>
		<rect x="41.66" y="404.11" width="1.1" height="1.1"/>
		<rect x="42.76" y="404.11" width="1.1" height="1.1"/>
		<rect x="46.07" y="404.11" width="1.1" height="1.1"/>
		<rect x="48.28" y="404.11" width="1.1" height="1.1"/>
		<rect x="49.39" y="404.11" width="1.1" height="1.1"/>
		<rect x="50.49" y="404.11" width="1.1" height="1.1"/>
		<rect x="51.6" y="404.11" width="1.1" height="1.1"/>
		<rect x="7.42" y="405.22" width="1.1" height="1.1"/>
		<rect x="16.26" y="405.22" width="1.1" height="1.1"/>
		<rect x="17.36" y="405.22" width="1.1" height="1.1"/>
		<rect x="18.47" y="405.22" width="1.1" height="1.1"/>
		<rect x="23.99" y="405.22" width="1.1" height="1.1"/>
		<rect x="25.09" y="405.22" width="1.1" height="1.1"/>
		<rect x="26.2" y="405.22" width="1.1" height="1.1"/>
		<rect x="32.82" y="405.22" width="1.1" height="1.1"/>
		<rect x="35.03" y="405.22" width="1.1" height="1.1"/>
		<rect x="36.14" y="405.22" width="1.1" height="1.1"/>
		<rect x="37.24" y="405.22" width="1.1" height="1.1"/>
		<rect x="38.34" y="405.22" width="1.1" height="1.1"/>
		<rect x="43.87" y="405.22" width="1.1" height="1.1"/>
		<rect x="44.97" y="405.22" width="1.1" height="1.1"/>
		<rect x="46.07" y="405.22" width="1.1" height="1.1"/>
		<rect x="47.18" y="405.22" width="1.1" height="1.1"/>
		<rect x="49.39" y="405.22" width="1.1" height="1.1"/>
		<rect x="51.6" y="405.22" width="1.1" height="1.1"/>
		<rect x="7.42" y="406.32" width="1.1" height="1.1"/>
		<rect x="9.63" y="406.32" width="1.1" height="1.1"/>
		<rect x="11.84" y="406.32" width="1.1" height="1.1"/>
		<rect x="12.94" y="406.32" width="1.1" height="1.1"/>
		<rect x="14.05" y="406.32" width="1.1" height="1.1"/>
		<rect x="16.26" y="406.32" width="1.1" height="1.1"/>
		<rect x="17.36" y="406.32" width="1.1" height="1.1"/>
		<rect x="18.47" y="406.32" width="1.1" height="1.1"/>
		<rect x="19.57" y="406.32" width="1.1" height="1.1"/>
		<rect x="20.67" y="406.32" width="1.1" height="1.1"/>
		<rect x="21.78" y="406.32" width="1.1" height="1.1"/>
		<rect x="22.88" y="406.32" width="1.1" height="1.1"/>
		<rect x="23.99" y="406.32" width="1.1" height="1.1"/>
		<rect x="25.09" y="406.32" width="1.1" height="1.1"/>
		<rect x="27.3" y="406.32" width="1.1" height="1.1"/>
		<rect x="29.51" y="406.32" width="1.1" height="1.1"/>
		<rect x="30.61" y="406.32" width="1.1" height="1.1"/>
		<rect x="32.82" y="406.32" width="1.1" height="1.1"/>
		<rect x="36.14" y="406.32" width="1.1" height="1.1"/>
		<rect x="37.24" y="406.32" width="1.1" height="1.1"/>
		<rect x="42.76" y="406.32" width="1.1" height="1.1"/>
		<rect x="47.18" y="406.32" width="1.1" height="1.1"/>
		<rect x="51.6" y="406.32" width="1.1" height="1.1"/>
		<rect x="10.74" y="407.43" width="1.1" height="1.1"/>
		<rect x="11.84" y="407.43" width="1.1" height="1.1"/>
		<rect x="15.15" y="407.43" width="1.1" height="1.1"/>
		<rect x="16.26" y="407.43" width="1.1" height="1.1"/>
		<rect x="17.36" y="407.43" width="1.1" height="1.1"/>
		<rect x="18.47" y="407.43" width="1.1" height="1.1"/>
		<rect x="19.57" y="407.43" width="1.1" height="1.1"/>
		<rect x="20.67" y="407.43" width="1.1" height="1.1"/>
		<rect x="21.78" y="407.43" width="1.1" height="1.1"/>
		<rect x="23.99" y="407.43" width="1.1" height="1.1"/>
		<rect x="26.2" y="407.43" width="1.1" height="1.1"/>
		<rect x="29.51" y="407.43" width="1.1" height="1.1"/>
		<rect x="30.61" y="407.43" width="1.1" height="1.1"/>
		<rect x="33.93" y="407.43" width="1.1" height="1.1"/>
		<rect x="39.45" y="407.43" width="1.1" height="1.1"/>
		<rect x="40.55" y="407.43" width="1.1" height="1.1"/>
		<rect x="42.76" y="407.43" width="1.1" height="1.1"/>
		<rect x="43.87" y="407.43" width="1.1" height="1.1"/>
		<rect x="44.97" y="407.43" width="1.1" height="1.1"/>
		<rect x="48.28" y="407.43" width="1.1" height="1.1"/>
		<rect x="50.49" y="407.43" width="1.1" height="1.1"/>
		<rect x="8.53" y="408.53" width="1.1" height="1.1"/>
		<rect x="12.94" y="408.53" width="1.1" height="1.1"/>
		<rect x="14.05" y="408.53" width="1.1" height="1.1"/>
		<rect x="16.26" y="408.53" width="1.1" height="1.1"/>
		<rect x="19.57" y="408.53" width="1.1" height="1.1"/>
		<rect x="21.78" y="408.53" width="1.1" height="1.1"/>
		<rect x="25.09" y="408.53" width="1.1" height="1.1"/>
		<rect x="26.2" y="408.53" width="1.1" height="1.1"/>
		<rect x="30.61" y="408.53" width="1.1" height="1.1"/>
		<rect x="31.72" y="408.53" width="1.1" height="1.1"/>
		<rect x="32.82" y="408.53" width="1.1" height="1.1"/>
		<rect x="37.24" y="408.53" width="1.1" height="1.1"/>
		<rect x="38.34" y="408.53" width="1.1" height="1.1"/>
		<rect x="39.45" y="408.53" width="1.1" height="1.1"/>
		<rect x="41.66" y="408.53" width="1.1" height="1.1"/>
		<rect x="43.87" y="408.53" width="1.1" height="1.1"/>
		<rect x="7.42" y="409.64" width="1.1" height="1.1"/>
		<rect x="8.53" y="409.64" width="1.1" height="1.1"/>
		<rect x="9.63" y="409.64" width="1.1" height="1.1"/>
		<rect x="10.74" y="409.64" width="1.1" height="1.1"/>
		<rect x="11.84" y="409.64" width="1.1" height="1.1"/>
		<rect x="16.26" y="409.64" width="1.1" height="1.1"/>
		<rect x="18.47" y="409.64" width="1.1" height="1.1"/>
		<rect x="20.67" y="409.64" width="1.1" height="1.1"/>
		<rect x="21.78" y="409.64" width="1.1" height="1.1"/>
		<rect x="22.88" y="409.64" width="1.1" height="1.1"/>
		<rect x="29.51" y="409.64" width="1.1" height="1.1"/>
		<rect x="30.61" y="409.64" width="1.1" height="1.1"/>
		<rect x="31.72" y="409.64" width="1.1" height="1.1"/>
		<rect x="32.82" y="409.64" width="1.1" height="1.1"/>
		<rect x="36.14" y="409.64" width="1.1" height="1.1"/>
		<rect x="37.24" y="409.64" width="1.1" height="1.1"/>
		<rect x="38.34" y="409.64" width="1.1" height="1.1"/>
		<rect x="40.55" y="409.64" width="1.1" height="1.1"/>
		<rect x="44.97" y="409.64" width="1.1" height="1.1"/>
		<rect x="46.07" y="409.64" width="1.1" height="1.1"/>
		<rect x="47.18" y="409.64" width="1.1" height="1.1"/>
		<rect x="48.28" y="409.64" width="1.1" height="1.1"/>
		<rect x="49.39" y="409.64" width="1.1" height="1.1"/>
		<rect x="50.49" y="409.64" width="1.1" height="1.1"/>
		<rect x="51.6" y="409.64" width="1.1" height="1.1"/>
		<rect x="7.42" y="410.74" width="1.1" height="1.1"/>
		<rect x="8.53" y="410.74" width="1.1" height="1.1"/>
		<rect x="11.84" y="410.74" width="1.1" height="1.1"/>
		<rect x="12.94" y="410.74" width="1.1" height="1.1"/>
		<rect x="14.05" y="410.74" width="1.1" height="1.1"/>
		<rect x="19.57" y="410.74" width="1.1" height="1.1"/>
		<rect x="20.67" y="410.74" width="1.1" height="1.1"/>
		<rect x="22.88" y="410.74" width="1.1" height="1.1"/>
		<rect x="23.99" y="410.74" width="1.1" height="1.1"/>
		<rect x="29.51" y="410.74" width="1.1" height="1.1"/>
		<rect x="32.82" y="410.74" width="1.1" height="1.1"/>
		<rect x="33.93" y="410.74" width="1.1" height="1.1"/>
		<rect x="36.14" y="410.74" width="1.1" height="1.1"/>
		<rect x="37.24" y="410.74" width="1.1" height="1.1"/>
		<rect x="39.45" y="410.74" width="1.1" height="1.1"/>
		<rect x="40.55" y="410.74" width="1.1" height="1.1"/>
		<rect x="44.97" y="410.74" width="1.1" height="1.1"/>
		<rect x="49.39" y="410.74" width="1.1" height="1.1"/>
		<rect x="51.6" y="410.74" width="1.1" height="1.1"/>
		<rect x="9.63" y="411.84" width="1.1" height="1.1"/>
		<rect x="10.74" y="411.84" width="1.1" height="1.1"/>
		<rect x="15.15" y="411.84" width="1.1" height="1.1"/>
		<rect x="17.36" y="411.84" width="1.1" height="1.1"/>
		<rect x="18.47" y="411.84" width="1.1" height="1.1"/>
		<rect x="19.57" y="411.84" width="1.1" height="1.1"/>
		<rect x="22.88" y="411.84" width="1.1" height="1.1"/>
		<rect x="23.99" y="411.84" width="1.1" height="1.1"/>
		<rect x="25.09" y="411.84" width="1.1" height="1.1"/>
		<rect x="26.2" y="411.84" width="1.1" height="1.1"/>
		<rect x="28.41" y="411.84" width="1.1" height="1.1"/>
		<rect x="29.51" y="411.84" width="1.1" height="1.1"/>
		<rect x="30.61" y="411.84" width="1.1" height="1.1"/>
		<rect x="32.82" y="411.84" width="1.1" height="1.1"/>
		<rect x="33.93" y="411.84" width="1.1" height="1.1"/>
		<rect x="36.14" y="411.84" width="1.1" height="1.1"/>
		<rect x="37.24" y="411.84" width="1.1" height="1.1"/>
		<rect x="39.45" y="411.84" width="1.1" height="1.1"/>
		<rect x="41.66" y="411.84" width="1.1" height="1.1"/>
		<rect x="42.76" y="411.84" width="1.1" height="1.1"/>
		<rect x="47.18" y="411.84" width="1.1" height="1.1"/>
		<rect x="48.28" y="411.84" width="1.1" height="1.1"/>
		<rect x="50.49" y="411.84" width="1.1" height="1.1"/>
		<rect x="51.6" y="411.84" width="1.1" height="1.1"/>
		<rect x="9.63" y="412.95" width="1.1" height="1.1"/>
		<rect x="10.74" y="412.95" width="1.1" height="1.1"/>
		<rect x="14.05" y="412.95" width="1.1" height="1.1"/>
		<rect x="20.67" y="412.95" width="1.1" height="1.1"/>
		<rect x="25.09" y="412.95" width="1.1" height="1.1"/>
		<rect x="26.2" y="412.95" width="1.1" height="1.1"/>
		<rect x="28.41" y="412.95" width="1.1" height="1.1"/>
		<rect x="29.51" y="412.95" width="1.1" height="1.1"/>
		<rect x="30.61" y="412.95" width="1.1" height="1.1"/>
		<rect x="31.72" y="412.95" width="1.1" height="1.1"/>
		<rect x="32.82" y="412.95" width="1.1" height="1.1"/>
		<rect x="33.93" y="412.95" width="1.1" height="1.1"/>
		<rect x="39.45" y="412.95" width="1.1" height="1.1"/>
		<rect x="40.55" y="412.95" width="1.1" height="1.1"/>
		<rect x="46.07" y="412.95" width="1.1" height="1.1"/>
		<rect x="50.49" y="412.95" width="1.1" height="1.1"/>
		<rect x="7.42" y="414.05" width="1.1" height="1.1"/>
		<rect x="9.63" y="414.05" width="1.1" height="1.1"/>
		<rect x="11.84" y="414.05" width="1.1" height="1.1"/>
		<rect x="15.15" y="414.05" width="1.1" height="1.1"/>
		<rect x="16.26" y="414.05" width="1.1" height="1.1"/>
		<rect x="17.36" y="414.05" width="1.1" height="1.1"/>
		<rect x="18.47" y="414.05" width="1.1" height="1.1"/>
		<rect x="19.57" y="414.05" width="1.1" height="1.1"/>
		<rect x="20.67" y="414.05" width="1.1" height="1.1"/>
		<rect x="21.78" y="414.05" width="1.1" height="1.1"/>
		<rect x="23.99" y="414.05" width="1.1" height="1.1"/>
		<rect x="25.09" y="414.05" width="1.1" height="1.1"/>
		<rect x="27.3" y="414.05" width="1.1" height="1.1"/>
		<rect x="31.72" y="414.05" width="1.1" height="1.1"/>
		<rect x="32.82" y="414.05" width="1.1" height="1.1"/>
		<rect x="35.03" y="414.05" width="1.1" height="1.1"/>
		<rect x="36.14" y="414.05" width="1.1" height="1.1"/>
		<rect x="37.24" y="414.05" width="1.1" height="1.1"/>
		<rect x="38.34" y="414.05" width="1.1" height="1.1"/>
		<rect x="39.45" y="414.05" width="1.1" height="1.1"/>
		<rect x="40.55" y="414.05" width="1.1" height="1.1"/>
		<rect x="44.97" y="414.05" width="1.1" height="1.1"/>
		<rect x="46.07" y="414.05" width="1.1" height="1.1"/>
		<rect x="47.18" y="414.05" width="1.1" height="1.1"/>
		<rect x="48.28" y="414.05" width="1.1" height="1.1"/>
		<rect x="49.39" y="414.05" width="1.1" height="1.1"/>
		<rect x="50.49" y="414.05" width="1.1" height="1.1"/>
		<rect x="51.6" y="414.05" width="1.1" height="1.1"/>
		<rect x="7.42" y="415.16" width="1.1" height="1.1"/>
		<rect x="8.53" y="415.16" width="1.1" height="1.1"/>
		<rect x="10.74" y="415.16" width="1.1" height="1.1"/>
		<rect x="14.05" y="415.16" width="1.1" height="1.1"/>
		<rect x="15.15" y="415.16" width="1.1" height="1.1"/>
		<rect x="16.26" y="415.16" width="1.1" height="1.1"/>
		<rect x="17.36" y="415.16" width="1.1" height="1.1"/>
		<rect x="18.47" y="415.16" width="1.1" height="1.1"/>
		<rect x="19.57" y="415.16" width="1.1" height="1.1"/>
		<rect x="20.67" y="415.16" width="1.1" height="1.1"/>
		<rect x="23.99" y="415.16" width="1.1" height="1.1"/>
		<rect x="26.2" y="415.16" width="1.1" height="1.1"/>
		<rect x="29.51" y="415.16" width="1.1" height="1.1"/>
		<rect x="31.72" y="415.16" width="1.1" height="1.1"/>
		<rect x="32.82" y="415.16" width="1.1" height="1.1"/>
		<rect x="33.93" y="415.16" width="1.1" height="1.1"/>
		<rect x="36.14" y="415.16" width="1.1" height="1.1"/>
		<rect x="37.24" y="415.16" width="1.1" height="1.1"/>
		<rect x="39.45" y="415.16" width="1.1" height="1.1"/>
		<rect x="42.76" y="415.16" width="1.1" height="1.1"/>
		<rect x="44.97" y="415.16" width="1.1" height="1.1"/>
		<rect x="47.18" y="415.16" width="1.1" height="1.1"/>
		<rect x="51.6" y="415.16" width="1.1" height="1.1"/>
		<rect x="9.63" y="416.26" width="1.1" height="1.1"/>
		<rect x="10.74" y="416.26" width="1.1" height="1.1"/>
		<rect x="11.84" y="416.26" width="1.1" height="1.1"/>
		<rect x="16.26" y="416.26" width="1.1" height="1.1"/>
		<rect x="17.36" y="416.26" width="1.1" height="1.1"/>
		<rect x="19.57" y="416.26" width="1.1" height="1.1"/>
		<rect x="20.67" y="416.26" width="1.1" height="1.1"/>
		<rect x="22.88" y="416.26" width="1.1" height="1.1"/>
		<rect x="23.99" y="416.26" width="1.1" height="1.1"/>
		<rect x="26.2" y="416.26" width="1.1" height="1.1"/>
		<rect x="28.41" y="416.26" width="1.1" height="1.1"/>
		<rect x="29.51" y="416.26" width="1.1" height="1.1"/>
		<rect x="30.61" y="416.26" width="1.1" height="1.1"/>
		<rect x="32.82" y="416.26" width="1.1" height="1.1"/>
		<rect x="36.14" y="416.26" width="1.1" height="1.1"/>
		<rect x="38.34" y="416.26" width="1.1" height="1.1"/>
		<rect x="39.45" y="416.26" width="1.1" height="1.1"/>
		<rect x="41.66" y="416.26" width="1.1" height="1.1"/>
		<rect x="42.76" y="416.26" width="1.1" height="1.1"/>
		<rect x="44.97" y="416.26" width="1.1" height="1.1"/>
		<rect x="48.28" y="416.26" width="1.1" height="1.1"/>
		<rect x="51.6" y="416.26" width="1.1" height="1.1"/>
		<rect x="9.63" y="417.37" width="1.1" height="1.1"/>
		<rect x="10.74" y="417.37" width="1.1" height="1.1"/>
		<rect x="11.84" y="417.37" width="1.1" height="1.1"/>
		<rect x="12.94" y="417.37" width="1.1" height="1.1"/>
		<rect x="14.05" y="417.37" width="1.1" height="1.1"/>
		<rect x="16.26" y="417.37" width="1.1" height="1.1"/>
		<rect x="20.67" y="417.37" width="1.1" height="1.1"/>
		<rect x="21.78" y="417.37" width="1.1" height="1.1"/>
		<rect x="22.88" y="417.37" width="1.1" height="1.1"/>
		<rect x="23.99" y="417.37" width="1.1" height="1.1"/>
		<rect x="26.2" y="417.37" width="1.1" height="1.1"/>
		<rect x="30.61" y="417.37" width="1.1" height="1.1"/>
		<rect x="33.93" y="417.37" width="1.1" height="1.1"/>
		<rect x="36.14" y="417.37" width="1.1" height="1.1"/>
		<rect x="39.45" y="417.37" width="1.1" height="1.1"/>
		<rect x="42.76" y="417.37" width="1.1" height="1.1"/>
		<rect x="8.53" y="418.47" width="1.1" height="1.1"/>
		<rect x="9.63" y="418.47" width="1.1" height="1.1"/>
		<rect x="10.74" y="418.47" width="1.1" height="1.1"/>
		<rect x="12.94" y="418.47" width="1.1" height="1.1"/>
		<rect x="15.15" y="418.47" width="1.1" height="1.1"/>
		<rect x="21.78" y="418.47" width="1.1" height="1.1"/>
		<rect x="25.09" y="418.47" width="1.1" height="1.1"/>
		<rect x="27.3" y="418.47" width="1.1" height="1.1"/>
		<rect x="29.51" y="418.47" width="1.1" height="1.1"/>
		<rect x="32.82" y="418.47" width="1.1" height="1.1"/>
		<rect x="33.93" y="418.47" width="1.1" height="1.1"/>
		<rect x="36.14" y="418.47" width="1.1" height="1.1"/>
		<rect x="37.24" y="418.47" width="1.1" height="1.1"/>
		<rect x="38.34" y="418.47" width="1.1" height="1.1"/>
		<rect x="39.45" y="418.47" width="1.1" height="1.1"/>
		<rect x="40.55" y="418.47" width="1.1" height="1.1"/>
		<rect x="44.97" y="418.47" width="1.1" height="1.1"/>
		<rect x="47.18" y="418.47" width="1.1" height="1.1"/>
		<rect x="49.39" y="418.47" width="1.1" height="1.1"/>
		<rect x="50.49" y="418.47" width="1.1" height="1.1"/>
		<rect x="51.6" y="418.47" width="1.1" height="1.1"/>
		<rect x="12.94" y="419.58" width="1.1" height="1.1"/>
		<rect x="14.05" y="419.58" width="1.1" height="1.1"/>
		<rect x="18.47" y="419.58" width="1.1" height="1.1"/>
		<rect x="21.78" y="419.58" width="1.1" height="1.1"/>
		<rect x="22.88" y="419.58" width="1.1" height="1.1"/>
		<rect x="25.09" y="419.58" width="1.1" height="1.1"/>
		<rect x="26.2" y="419.58" width="1.1" height="1.1"/>
		<rect x="31.72" y="419.58" width="1.1" height="1.1"/>
		<rect x="32.82" y="419.58" width="1.1" height="1.1"/>
		<rect x="37.24" y="419.58" width="1.1" height="1.1"/>
		<rect x="38.34" y="419.58" width="1.1" height="1.1"/>
		<rect x="40.55" y="419.58" width="1.1" height="1.1"/>
		<rect x="42.76" y="419.58" width="1.1" height="1.1"/>
		<rect x="46.07" y="419.58" width="1.1" height="1.1"/>
		<rect x="48.28" y="419.58" width="1.1" height="1.1"/>
		<rect x="51.6" y="419.58" width="1.1" height="1.1"/>
		<rect x="7.42" y="420.68" width="1.1" height="1.1"/>
		<rect x="8.53" y="420.68" width="1.1" height="1.1"/>
		<rect x="9.63" y="420.68" width="1.1" height="1.1"/>
		<rect x="11.84" y="420.68" width="1.1" height="1.1"/>
		<rect x="16.26" y="420.68" width="1.1" height="1.1"/>
		<rect x="17.36" y="420.68" width="1.1" height="1.1"/>
		<rect x="18.47" y="420.68" width="1.1" height="1.1"/>
		<rect x="20.67" y="420.68" width="1.1" height="1.1"/>
		<rect x="26.2" y="420.68" width="1.1" height="1.1"/>
		<rect x="27.3" y="420.68" width="1.1" height="1.1"/>
		<rect x="30.61" y="420.68" width="1.1" height="1.1"/>
		<rect x="31.72" y="420.68" width="1.1" height="1.1"/>
		<rect x="36.14" y="420.68" width="1.1" height="1.1"/>
		<rect x="38.34" y="420.68" width="1.1" height="1.1"/>
		<rect x="39.45" y="420.68" width="1.1" height="1.1"/>
		<rect x="43.87" y="420.68" width="1.1" height="1.1"/>
		<rect x="48.28" y="420.68" width="1.1" height="1.1"/>
		<rect x="50.49" y="420.68" width="1.1" height="1.1"/>
		<rect x="51.6" y="420.68" width="1.1" height="1.1"/>
		<rect x="8.53" y="421.78" width="1.1" height="1.1"/>
		<rect x="14.05" y="421.78" width="1.1" height="1.1"/>
		<rect x="15.15" y="421.78" width="1.1" height="1.1"/>
		<rect x="16.26" y="421.78" width="1.1" height="1.1"/>
		<rect x="18.47" y="421.78" width="1.1" height="1.1"/>
		<rect x="19.57" y="421.78" width="1.1" height="1.1"/>
		<rect x="20.67" y="421.78" width="1.1" height="1.1"/>
		<rect x="23.99" y="421.78" width="1.1" height="1.1"/>
		<rect x="26.2" y="421.78" width="1.1" height="1.1"/>
		<rect x="29.51" y="421.78" width="1.1" height="1.1"/>
		<rect x="30.61" y="421.78" width="1.1" height="1.1"/>
		<rect x="31.72" y="421.78" width="1.1" height="1.1"/>
		<rect x="32.82" y="421.78" width="1.1" height="1.1"/>
		<rect x="33.93" y="421.78" width="1.1" height="1.1"/>
		<rect x="39.45" y="421.78" width="1.1" height="1.1"/>
		<rect x="42.76" y="421.78" width="1.1" height="1.1"/>
		<rect x="43.87" y="421.78" width="1.1" height="1.1"/>
		<rect x="46.07" y="421.78" width="1.1" height="1.1"/>
		<rect x="51.6" y="421.78" width="1.1" height="1.1"/>
		<rect x="7.42" y="422.89" width="1.1" height="1.1"/>
		<rect x="8.53" y="422.89" width="1.1" height="1.1"/>
		<rect x="11.84" y="422.89" width="1.1" height="1.1"/>
		<rect x="15.15" y="422.89" width="1.1" height="1.1"/>
		<rect x="16.26" y="422.89" width="1.1" height="1.1"/>
		<rect x="18.47" y="422.89" width="1.1" height="1.1"/>
		<rect x="19.57" y="422.89" width="1.1" height="1.1"/>
		<rect x="22.88" y="422.89" width="1.1" height="1.1"/>
		<rect x="23.99" y="422.89" width="1.1" height="1.1"/>
		<rect x="26.2" y="422.89" width="1.1" height="1.1"/>
		<rect x="30.61" y="422.89" width="1.1" height="1.1"/>
		<rect x="31.72" y="422.89" width="1.1" height="1.1"/>
		<rect x="32.82" y="422.89" width="1.1" height="1.1"/>
		<rect x="36.14" y="422.89" width="1.1" height="1.1"/>
		<rect x="37.24" y="422.89" width="1.1" height="1.1"/>
		<rect x="38.34" y="422.89" width="1.1" height="1.1"/>
		<rect x="40.55" y="422.89" width="1.1" height="1.1"/>
		<rect x="43.87" y="422.89" width="1.1" height="1.1"/>
		<rect x="44.97" y="422.89" width="1.1" height="1.1"/>
		<rect x="46.07" y="422.89" width="1.1" height="1.1"/>
		<rect x="47.18" y="422.89" width="1.1" height="1.1"/>
		<rect x="48.28" y="422.89" width="1.1" height="1.1"/>
		<rect x="49.39" y="422.89" width="1.1" height="1.1"/>
		<rect x="51.6" y="422.89" width="1.1" height="1.1"/>
		<rect x="8.53" y="423.99" width="1.1" height="1.1"/>
		<rect x="9.63" y="423.99" width="1.1" height="1.1"/>
		<rect x="12.94" y="423.99" width="1.1" height="1.1"/>
		<rect x="14.05" y="423.99" width="1.1" height="1.1"/>
		<rect x="15.15" y="423.99" width="1.1" height="1.1"/>
		<rect x="16.26" y="423.99" width="1.1" height="1.1"/>
		<rect x="17.36" y="423.99" width="1.1" height="1.1"/>
		<rect x="19.57" y="423.99" width="1.1" height="1.1"/>
		<rect x="21.78" y="423.99" width="1.1" height="1.1"/>
		<rect x="22.88" y="423.99" width="1.1" height="1.1"/>
		<rect x="23.99" y="423.99" width="1.1" height="1.1"/>
		<rect x="25.09" y="423.99" width="1.1" height="1.1"/>
		<rect x="26.2" y="423.99" width="1.1" height="1.1"/>
		<rect x="29.51" y="423.99" width="1.1" height="1.1"/>
		<rect x="30.61" y="423.99" width="1.1" height="1.1"/>
		<rect x="32.82" y="423.99" width="1.1" height="1.1"/>
		<rect x="36.14" y="423.99" width="1.1" height="1.1"/>
		<rect x="37.24" y="423.99" width="1.1" height="1.1"/>
		<rect x="39.45" y="423.99" width="1.1" height="1.1"/>
		<rect x="40.55" y="423.99" width="1.1" height="1.1"/>
		<rect x="47.18" y="423.99" width="1.1" height="1.1"/>
		<rect x="48.28" y="423.99" width="1.1" height="1.1"/>
		<rect x="49.39" y="423.99" width="1.1" height="1.1"/>
		<rect x="51.6" y="423.99" width="1.1" height="1.1"/>
		<rect x="8.53" y="425.1" width="1.1" height="1.1"/>
		<rect x="9.63" y="425.1" width="1.1" height="1.1"/>
		<rect x="11.84" y="425.1" width="1.1" height="1.1"/>
		<rect x="12.94" y="425.1" width="1.1" height="1.1"/>
		<rect x="15.15" y="425.1" width="1.1" height="1.1"/>
		<rect x="16.26" y="425.1" width="1.1" height="1.1"/>
		<rect x="19.57" y="425.1" width="1.1" height="1.1"/>
		<rect x="20.67" y="425.1" width="1.1" height="1.1"/>
		<rect x="21.78" y="425.1" width="1.1" height="1.1"/>
		<rect x="25.09" y="425.1" width="1.1" height="1.1"/>
		<rect x="26.2" y="425.1" width="1.1" height="1.1"/>
		<rect x="28.41" y="425.1" width="1.1" height="1.1"/>
		<rect x="30.61" y="425.1" width="1.1" height="1.1"/>
		<rect x="36.14" y="425.1" width="1.1" height="1.1"/>
		<rect x="37.24" y="425.1" width="1.1" height="1.1"/>
		<rect x="39.45" y="425.1" width="1.1" height="1.1"/>
		<rect x="40.55" y="425.1" width="1.1" height="1.1"/>
		<rect x="42.76" y="425.1" width="1.1" height="1.1"/>
		<rect x="44.97" y="425.1" width="1.1" height="1.1"/>
		<rect x="47.18" y="425.1" width="1.1" height="1.1"/>
		<rect x="14.05" y="426.2" width="1.1" height="1.1"/>
		<rect x="16.26" y="426.2" width="1.1" height="1.1"/>
		<rect x="18.47" y="426.2" width="1.1" height="1.1"/>
		<rect x="19.57" y="426.2" width="1.1" height="1.1"/>
		<rect x="21.78" y="426.2" width="1.1" height="1.1"/>
		<rect x="25.09" y="426.2" width="1.1" height="1.1"/>
		<rect x="26.2" y="426.2" width="1.1" height="1.1"/>
		<rect x="28.41" y="426.2" width="1.1" height="1.1"/>
		<rect x="30.61" y="426.2" width="1.1" height="1.1"/>
		<rect x="38.34" y="426.2" width="1.1" height="1.1"/>
		<rect x="39.45" y="426.2" width="1.1" height="1.1"/>
		<rect x="41.66" y="426.2" width="1.1" height="1.1"/>
		<rect x="42.76" y="426.2" width="1.1" height="1.1"/>
		<rect x="43.87" y="426.2" width="1.1" height="1.1"/>
		<rect x="46.07" y="426.2" width="1.1" height="1.1"/>
		<rect x="7.42" y="427.31" width="1.1" height="1.1"/>
		<rect x="8.53" y="427.31" width="1.1" height="1.1"/>
		<rect x="9.63" y="427.31" width="1.1" height="1.1"/>
		<rect x="10.74" y="427.31" width="1.1" height="1.1"/>
		<rect x="12.94" y="427.31" width="1.1" height="1.1"/>
		<rect x="15.15" y="427.31" width="1.1" height="1.1"/>
		<rect x="16.26" y="427.31" width="1.1" height="1.1"/>
		<rect x="20.67" y="427.31" width="1.1" height="1.1"/>
		<rect x="21.78" y="427.31" width="1.1" height="1.1"/>
		<rect x="22.88" y="427.31" width="1.1" height="1.1"/>
		<rect x="29.51" y="427.31" width="1.1" height="1.1"/>
		<rect x="31.72" y="427.31" width="1.1" height="1.1"/>
		<rect x="32.82" y="427.31" width="1.1" height="1.1"/>
		<rect x="35.03" y="427.31" width="1.1" height="1.1"/>
		<rect x="36.14" y="427.31" width="1.1" height="1.1"/>
		<rect x="37.24" y="427.31" width="1.1" height="1.1"/>
		<rect x="38.34" y="427.31" width="1.1" height="1.1"/>
		<rect x="44.97" y="427.31" width="1.1" height="1.1"/>
		<rect x="46.07" y="427.31" width="1.1" height="1.1"/>
		<rect x="47.18" y="427.31" width="1.1" height="1.1"/>
		<rect x="48.28" y="427.31" width="1.1" height="1.1"/>
		<rect x="49.39" y="427.31" width="1.1" height="1.1"/>
		<rect x="51.6" y="427.31" width="1.1" height="1.1"/>
		<rect x="9.63" y="428.41" width="1.1" height="1.1"/>
		<rect x="10.74" y="428.41" width="1.1" height="1.1"/>
		<rect x="12.94" y="428.41" width="1.1" height="1.1"/>
		<rect x="14.05" y="428.41" width="1.1" height="1.1"/>
		<rect x="18.47" y="428.41" width="1.1" height="1.1"/>
		<rect x="19.57" y="428.41" width="1.1" height="1.1"/>
		<rect x="20.67" y="428.41" width="1.1" height="1.1"/>
		<rect x="22.88" y="428.41" width="1.1" height="1.1"/>
		<rect x="23.99" y="428.41" width="1.1" height="1.1"/>
		<rect x="26.2" y="428.41" width="1.1" height="1.1"/>
		<rect x="27.3" y="428.41" width="1.1" height="1.1"/>
		<rect x="29.51" y="428.41" width="1.1" height="1.1"/>
		<rect x="30.61" y="428.41" width="1.1" height="1.1"/>
		<rect x="32.82" y="428.41" width="1.1" height="1.1"/>
		<rect x="33.93" y="428.41" width="1.1" height="1.1"/>
		<rect x="36.14" y="428.41" width="1.1" height="1.1"/>
		<rect x="37.24" y="428.41" width="1.1" height="1.1"/>
		<rect x="38.34" y="428.41" width="1.1" height="1.1"/>
		<rect x="40.55" y="428.41" width="1.1" height="1.1"/>
		<rect x="42.76" y="428.41" width="1.1" height="1.1"/>
		<rect x="43.87" y="428.41" width="1.1" height="1.1"/>
		<rect x="44.97" y="428.41" width="1.1" height="1.1"/>
		<rect x="46.07" y="428.41" width="1.1" height="1.1"/>
		<rect x="47.18" y="428.41" width="1.1" height="1.1"/>
		<rect x="49.39" y="428.41" width="1.1" height="1.1"/>
		<rect x="51.6" y="428.41" width="1.1" height="1.1"/>
		<rect x="9.63" y="429.51" width="1.1" height="1.1"/>
		<rect x="11.84" y="429.51" width="1.1" height="1.1"/>
		<rect x="15.15" y="429.51" width="1.1" height="1.1"/>
		<rect x="17.36" y="429.51" width="1.1" height="1.1"/>
		<rect x="19.57" y="429.51" width="1.1" height="1.1"/>
		<rect x="22.88" y="429.51" width="1.1" height="1.1"/>
		<rect x="23.99" y="429.51" width="1.1" height="1.1"/>
		<rect x="25.09" y="429.51" width="1.1" height="1.1"/>
		<rect x="26.2" y="429.51" width="1.1" height="1.1"/>
		<rect x="28.41" y="429.51" width="1.1" height="1.1"/>
		<rect x="29.51" y="429.51" width="1.1" height="1.1"/>
		<rect x="30.61" y="429.51" width="1.1" height="1.1"/>
		<rect x="31.72" y="429.51" width="1.1" height="1.1"/>
		<rect x="32.82" y="429.51" width="1.1" height="1.1"/>
		<rect x="33.93" y="429.51" width="1.1" height="1.1"/>
		<rect x="36.14" y="429.51" width="1.1" height="1.1"/>
		<rect x="37.24" y="429.51" width="1.1" height="1.1"/>
		<rect x="38.34" y="429.51" width="1.1" height="1.1"/>
		<rect x="39.45" y="429.51" width="1.1" height="1.1"/>
		<rect x="41.66" y="429.51" width="1.1" height="1.1"/>
		<rect x="42.76" y="429.51" width="1.1" height="1.1"/>
		<rect x="47.18" y="429.51" width="1.1" height="1.1"/>
		<rect x="48.28" y="429.51" width="1.1" height="1.1"/>
		<rect x="50.49" y="429.51" width="1.1" height="1.1"/>
		<rect x="51.6" y="429.51" width="1.1" height="1.1"/>
		<rect x="7.42" y="430.62" width="1.1" height="1.1"/>
		<rect x="8.53" y="430.62" width="1.1" height="1.1"/>
		<rect x="9.63" y="430.62" width="1.1" height="1.1"/>
		<rect x="11.84" y="430.62" width="1.1" height="1.1"/>
		<rect x="12.94" y="430.62" width="1.1" height="1.1"/>
		<rect x="14.05" y="430.62" width="1.1" height="1.1"/>
		<rect x="17.36" y="430.62" width="1.1" height="1.1"/>
		<rect x="18.47" y="430.62" width="1.1" height="1.1"/>
		<rect x="20.67" y="430.62" width="1.1" height="1.1"/>
		<rect x="25.09" y="430.62" width="1.1" height="1.1"/>
		<rect x="26.2" y="430.62" width="1.1" height="1.1"/>
		<rect x="28.41" y="430.62" width="1.1" height="1.1"/>
		<rect x="29.51" y="430.62" width="1.1" height="1.1"/>
		<rect x="30.61" y="430.62" width="1.1" height="1.1"/>
		<rect x="31.72" y="430.62" width="1.1" height="1.1"/>
		<rect x="36.14" y="430.62" width="1.1" height="1.1"/>
		<rect x="39.45" y="430.62" width="1.1" height="1.1"/>
		<rect x="42.76" y="430.62" width="1.1" height="1.1"/>
		<rect x="43.87" y="430.62" width="1.1" height="1.1"/>
		<rect x="44.97" y="430.62" width="1.1" height="1.1"/>
		<rect x="46.07" y="430.62" width="1.1" height="1.1"/>
		<rect x="47.18" y="430.62" width="1.1" height="1.1"/>
		<rect x="48.28" y="430.62" width="1.1" height="1.1"/>
		<rect x="51.6" y="430.62" width="1.1" height="1.1"/>
		<rect x="16.26" y="431.72" width="1.1" height="1.1"/>
		<rect x="17.36" y="431.72" width="1.1" height="1.1"/>
		<rect x="18.47" y="431.72" width="1.1" height="1.1"/>
		<rect x="19.57" y="431.72" width="1.1" height="1.1"/>
		<rect x="21.78" y="431.72" width="1.1" height="1.1"/>
		<rect x="23.99" y="431.72" width="1.1" height="1.1"/>
		<rect x="25.09" y="431.72" width="1.1" height="1.1"/>
		<rect x="27.3" y="431.72" width="1.1" height="1.1"/>
		<rect x="30.61" y="431.72" width="1.1" height="1.1"/>
		<rect x="31.72" y="431.72" width="1.1" height="1.1"/>
		<rect x="32.82" y="431.72" width="1.1" height="1.1"/>
		<rect x="35.03" y="431.72" width="1.1" height="1.1"/>
		<rect x="36.14" y="431.72" width="1.1" height="1.1"/>
		<rect x="37.24" y="431.72" width="1.1" height="1.1"/>
		<rect x="38.34" y="431.72" width="1.1" height="1.1"/>
		<rect x="41.66" y="431.72" width="1.1" height="1.1"/>
		<rect x="42.76" y="431.72" width="1.1" height="1.1"/>
		<rect x="47.18" y="431.72" width="1.1" height="1.1"/>
		<rect x="48.28" y="431.72" width="1.1" height="1.1"/>
		<rect x="51.6" y="431.72" width="1.1" height="1.1"/>
		<rect x="7.42" y="432.83" width="1.1" height="1.1"/>
		<rect x="8.53" y="432.83" width="1.1" height="1.1"/>
		<rect x="9.63" y="432.83" width="1.1" height="1.1"/>
		<rect x="10.74" y="432.83" width="1.1" height="1.1"/>
		<rect x="11.84" y="432.83" width="1.1" height="1.1"/>
		<rect x="12.94" y="432.83" width="1.1" height="1.1"/>
		<rect x="14.05" y="432.83" width="1.1" height="1.1"/>
		<rect x="18.47" y="432.83" width="1.1" height="1.1"/>
		<rect x="19.57" y="432.83" width="1.1" height="1.1"/>
		<rect x="20.67" y="432.83" width="1.1" height="1.1"/>
		<rect x="23.99" y="432.83" width="1.1" height="1.1"/>
		<rect x="26.2" y="432.83" width="1.1" height="1.1"/>
		<rect x="29.51" y="432.83" width="1.1" height="1.1"/>
		<rect x="30.61" y="432.83" width="1.1" height="1.1"/>
		<rect x="31.72" y="432.83" width="1.1" height="1.1"/>
		<rect x="32.82" y="432.83" width="1.1" height="1.1"/>
		<rect x="35.03" y="432.83" width="1.1" height="1.1"/>
		<rect x="37.24" y="432.83" width="1.1" height="1.1"/>
		<rect x="41.66" y="432.83" width="1.1" height="1.1"/>
		<rect x="42.76" y="432.83" width="1.1" height="1.1"/>
		<rect x="44.97" y="432.83" width="1.1" height="1.1"/>
		<rect x="47.18" y="432.83" width="1.1" height="1.1"/>
		<rect x="49.39" y="432.83" width="1.1" height="1.1"/>
		<rect x="51.6" y="432.83" width="1.1" height="1.1"/>
		<rect x="7.42" y="433.93" width="1.1" height="1.1"/>
		<rect x="14.05" y="433.93" width="1.1" height="1.1"/>
		<rect x="16.26" y="433.93" width="1.1" height="1.1"/>
		<rect x="17.36" y="433.93" width="1.1" height="1.1"/>
		<rect x="18.47" y="433.93" width="1.1" height="1.1"/>
		<rect x="19.57" y="433.93" width="1.1" height="1.1"/>
		<rect x="20.67" y="433.93" width="1.1" height="1.1"/>
		<rect x="22.88" y="433.93" width="1.1" height="1.1"/>
		<rect x="23.99" y="433.93" width="1.1" height="1.1"/>
		<rect x="26.2" y="433.93" width="1.1" height="1.1"/>
		<rect x="28.41" y="433.93" width="1.1" height="1.1"/>
		<rect x="29.51" y="433.93" width="1.1" height="1.1"/>
		<rect x="30.61" y="433.93" width="1.1" height="1.1"/>
		<rect x="31.72" y="433.93" width="1.1" height="1.1"/>
		<rect x="32.82" y="433.93" width="1.1" height="1.1"/>
		<rect x="33.93" y="433.93" width="1.1" height="1.1"/>
		<rect x="36.14" y="433.93" width="1.1" height="1.1"/>
		<rect x="39.45" y="433.93" width="1.1" height="1.1"/>
		<rect x="41.66" y="433.93" width="1.1" height="1.1"/>
		<rect x="42.76" y="433.93" width="1.1" height="1.1"/>
		<rect x="47.18" y="433.93" width="1.1" height="1.1"/>
		<rect x="51.6" y="433.93" width="1.1" height="1.1"/>
		<rect x="7.42" y="435.04" width="1.1" height="1.1"/>
		<rect x="9.63" y="435.04" width="1.1" height="1.1"/>
		<rect x="10.74" y="435.04" width="1.1" height="1.1"/>
		<rect x="11.84" y="435.04" width="1.1" height="1.1"/>
		<rect x="14.05" y="435.04" width="1.1" height="1.1"/>
		<rect x="16.26" y="435.04" width="1.1" height="1.1"/>
		<rect x="17.36" y="435.04" width="1.1" height="1.1"/>
		<rect x="19.57" y="435.04" width="1.1" height="1.1"/>
		<rect x="20.67" y="435.04" width="1.1" height="1.1"/>
		<rect x="21.78" y="435.04" width="1.1" height="1.1"/>
		<rect x="22.88" y="435.04" width="1.1" height="1.1"/>
		<rect x="27.3" y="435.04" width="1.1" height="1.1"/>
		<rect x="30.61" y="435.04" width="1.1" height="1.1"/>
		<rect x="33.93" y="435.04" width="1.1" height="1.1"/>
		<rect x="37.24" y="435.04" width="1.1" height="1.1"/>
		<rect x="38.34" y="435.04" width="1.1" height="1.1"/>
		<rect x="39.45" y="435.04" width="1.1" height="1.1"/>
		<rect x="40.55" y="435.04" width="1.1" height="1.1"/>
		<rect x="41.66" y="435.04" width="1.1" height="1.1"/>
		<rect x="42.76" y="435.04" width="1.1" height="1.1"/>
		<rect x="43.87" y="435.04" width="1.1" height="1.1"/>
		<rect x="44.97" y="435.04" width="1.1" height="1.1"/>
		<rect x="46.07" y="435.04" width="1.1" height="1.1"/>
		<rect x="47.18" y="435.04" width="1.1" height="1.1"/>
		<rect x="48.28" y="435.04" width="1.1" height="1.1"/>
		<rect x="50.49" y="435.04" width="1.1" height="1.1"/>
		<rect x="51.6" y="435.04" width="1.1" height="1.1"/>
		<rect x="7.42" y="436.14" width="1.1" height="1.1"/>
		<rect x="9.63" y="436.14" width="1.1" height="1.1"/>
		<rect x="10.74" y="436.14" width="1.1" height="1.1"/>
		<rect x="11.84" y="436.14" width="1.1" height="1.1"/>
		<rect x="14.05" y="436.14" width="1.1" height="1.1"/>
		<rect x="17.36" y="436.14" width="1.1" height="1.1"/>
		<rect x="25.09" y="436.14" width="1.1" height="1.1"/>
		<rect x="27.3" y="436.14" width="1.1" height="1.1"/>
		<rect x="29.51" y="436.14" width="1.1" height="1.1"/>
		<rect x="31.72" y="436.14" width="1.1" height="1.1"/>
		<rect x="32.82" y="436.14" width="1.1" height="1.1"/>
		<rect x="36.14" y="436.14" width="1.1" height="1.1"/>
		<rect x="37.24" y="436.14" width="1.1" height="1.1"/>
		<rect x="38.34" y="436.14" width="1.1" height="1.1"/>
		<rect x="40.55" y="436.14" width="1.1" height="1.1"/>
		<rect x="42.76" y="436.14" width="1.1" height="1.1"/>
		<rect x="43.87" y="436.14" width="1.1" height="1.1"/>
		<rect x="48.28" y="436.14" width="1.1" height="1.1"/>
		<rect x="49.39" y="436.14" width="1.1" height="1.1"/>
		<rect x="50.49" y="436.14" width="1.1" height="1.1"/>
		<rect x="51.6" y="436.14" width="1.1" height="1.1"/>
		<rect x="7.42" y="437.24" width="1.1" height="1.1"/>
		<rect x="9.63" y="437.24" width="1.1" height="1.1"/>
		<rect x="10.74" y="437.24" width="1.1" height="1.1"/>
		<rect x="11.84" y="437.24" width="1.1" height="1.1"/>
		<rect x="14.05" y="437.24" width="1.1" height="1.1"/>
		<rect x="18.47" y="437.24" width="1.1" height="1.1"/>
		<rect x="21.78" y="437.24" width="1.1" height="1.1"/>
		<rect x="25.09" y="437.24" width="1.1" height="1.1"/>
		<rect x="26.2" y="437.24" width="1.1" height="1.1"/>
		<rect x="27.3" y="437.24" width="1.1" height="1.1"/>
		<rect x="31.72" y="437.24" width="1.1" height="1.1"/>
		<rect x="32.82" y="437.24" width="1.1" height="1.1"/>
		<rect x="35.03" y="437.24" width="1.1" height="1.1"/>
		<rect x="36.14" y="437.24" width="1.1" height="1.1"/>
		<rect x="37.24" y="437.24" width="1.1" height="1.1"/>
		<rect x="41.66" y="437.24" width="1.1" height="1.1"/>
		<rect x="46.07" y="437.24" width="1.1" height="1.1"/>
		<rect x="48.28" y="437.24" width="1.1" height="1.1"/>
		<rect x="51.6" y="437.24" width="1.1" height="1.1"/>
		<rect x="7.42" y="438.35" width="1.1" height="1.1"/>
		<rect x="14.05" y="438.35" width="1.1" height="1.1"/>
		<rect x="16.26" y="438.35" width="1.1" height="1.1"/>
		<rect x="20.67" y="438.35" width="1.1" height="1.1"/>
		<rect x="26.2" y="438.35" width="1.1" height="1.1"/>
		<rect x="27.3" y="438.35" width="1.1" height="1.1"/>
		<rect x="29.51" y="438.35" width="1.1" height="1.1"/>
		<rect x="30.61" y="438.35" width="1.1" height="1.1"/>
		<rect x="32.82" y="438.35" width="1.1" height="1.1"/>
		<rect x="36.14" y="438.35" width="1.1" height="1.1"/>
		<rect x="37.24" y="438.35" width="1.1" height="1.1"/>
		<rect x="39.45" y="438.35" width="1.1" height="1.1"/>
		<rect x="42.76" y="438.35" width="1.1" height="1.1"/>
		<rect x="47.18" y="438.35" width="1.1" height="1.1"/>
		<rect x="48.28" y="438.35" width="1.1" height="1.1"/>
		<rect x="50.49" y="438.35" width="1.1" height="1.1"/>
		<rect x="51.6" y="438.35" width="1.1" height="1.1"/>
		<rect x="7.42" y="439.45" width="1.1" height="1.1"/>
		<rect x="8.53" y="439.45" width="1.1" height="1.1"/>
		<rect x="9.63" y="439.45" width="1.1" height="1.1"/>
		<rect x="10.74" y="439.45" width="1.1" height="1.1"/>
		<rect x="11.84" y="439.45" width="1.1" height="1.1"/>
		<rect x="12.94" y="439.45" width="1.1" height="1.1"/>
		<rect x="14.05" y="439.45" width="1.1" height="1.1"/>
		<rect x="16.26" y="439.45" width="1.1" height="1.1"/>
		<rect x="19.57" y="439.45" width="1.1" height="1.1"/>
		<rect x="20.67" y="439.45" width="1.1" height="1.1"/>
		<rect x="22.88" y="439.45" width="1.1" height="1.1"/>
		<rect x="23.99" y="439.45" width="1.1" height="1.1"/>
		<rect x="25.09" y="439.45" width="1.1" height="1.1"/>
		<rect x="26.2" y="439.45" width="1.1" height="1.1"/>
		<rect x="28.41" y="439.45" width="1.1" height="1.1"/>
		<rect x="29.51" y="439.45" width="1.1" height="1.1"/>
		<rect x="30.61" y="439.45" width="1.1" height="1.1"/>
		<rect x="32.82" y="439.45" width="1.1" height="1.1"/>
		<rect x="37.24" y="439.45" width="1.1" height="1.1"/>
		<rect x="39.45" y="439.45" width="1.1" height="1.1"/>
		<rect x="40.55" y="439.45" width="1.1" height="1.1"/>
		<rect x="42.76" y="439.45" width="1.1" height="1.1"/>
		<rect x="43.87" y="439.45" width="1.1" height="1.1"/>
		<rect x="46.07" y="439.45" width="1.1" height="1.1"/>
		<rect x="48.28" y="439.45" width="1.1" height="1.1"/>
		<rect x="50.49" y="439.45" width="1.1" height="1.1"/>
		<rect x="7.42" y="395.28" width="1.1" height="1.1"/>
		<rect x="8.53" y="395.28" width="1.1" height="1.1"/>
		<rect x="9.63" y="395.28" width="1.1" height="1.1"/>
		<rect x="10.74" y="395.28" width="1.1" height="1.1"/>
		<rect x="11.84" y="395.28" width="1.1" height="1.1"/>
		<rect x="12.94" y="395.28" width="1.1" height="1.1"/>
		<rect x="14.05" y="395.28" width="1.1" height="1.1"/>
		<rect x="16.26" y="395.28" width="1.1" height="1.1"/>
		<rect x="17.36" y="395.28" width="1.1" height="1.1"/>
		<rect x="21.78" y="395.28" width="1.1" height="1.1"/>
		<rect x="22.88" y="395.28" width="1.1" height="1.1"/>
		<rect x="23.99" y="395.28" width="1.1" height="1.1"/>
		<rect x="25.09" y="395.28" width="1.1" height="1.1"/>
		<rect x="27.3" y="395.28" width="1.1" height="1.1"/>
		<rect x="30.61" y="395.28" width="1.1" height="1.1"/>
		<rect x="31.72" y="395.28" width="1.1" height="1.1"/>
		<rect x="32.82" y="395.28" width="1.1" height="1.1"/>
		<rect x="36.14" y="395.28" width="1.1" height="1.1"/>
		<rect x="37.24" y="395.28" width="1.1" height="1.1"/>
		<rect x="38.34" y="395.28" width="1.1" height="1.1"/>
		<rect x="39.45" y="395.28" width="1.1" height="1.1"/>
		<rect x="44.97" y="395.28" width="1.1" height="1.1"/>
		<rect x="46.07" y="395.28" width="1.1" height="1.1"/>
		<rect x="47.18" y="395.28" width="1.1" height="1.1"/>
		<rect x="48.28" y="395.28" width="1.1" height="1.1"/>
		<rect x="49.39" y="395.28" width="1.1" height="1.1"/>
		<rect x="50.49" y="395.28" width="1.1" height="1.1"/>
		<rect x="51.6" y="395.28" width="1.1" height="1.1"/>
	</g>
</g>
<g id="CARTOUCHES">
	<g>
		<rect x="22.1" y="137.7" fill="#FFD148" width="113.64" height="14.21"/>
		<rect x="22.1" y="181.78" fill="#057E3B" width="113.64" height="14.21"/>
		<rect x="22.1" y="225.87" fill="#3BAB48" width="113.64" height="14.21"/>
		<rect x="22.1" y="269.95" fill="#3BAB48" width="113.64" height="14.21"/>
		<rect x="22.1" y="314.04" fill="#1A9DD9" width="113.64" height="14.21"/>
		<rect x="22.1" y="358.12" fill="#077098" width="113.64" height="14.21"/>
	</g>
	<g fill="cmyk(0%, 0%, 0%, 100%)">
		<rect x="3.4" y="333.95" width="45.47" height="12.21"/>
		<rect x="3.4" y="113.45" width="45.47" height="12.21"/>
		<rect x="3.4" y="157.55" width="45.47" height="12.21"/>
		<rect x="3.4" y="201.65" width="45.47" height="12.21"/>
		<rect x="3.4" y="245.75" width="45.47" height="12.21"/>
		<rect x="3.4" y="289.85" width="45.47" height="12.21"/>
	</g>
</g>
<g id="LOGO">
	<polygon fill="#D42F1A" points="74.2,383.06 71.7,383.06 71.7,381.66 71.18,381.66 71.18,383.74 72.73,383.88 74.34,385.34 
		74.34,388.6 72.84,390.04 70.06,390.04 68.54,388.6 68.54,386.68 71.18,386.68 71.18,388.08 71.7,388.08 71.7,385.95 70.24,385.82 
		68.61,384.38 68.61,381.16 70.06,379.7 72.73,379.7 74.2,381.16 	"/>
	<polygon fill="#D42F1A" points="80.57,388.6 79.06,390.04 76.32,390.04 74.8,388.6 74.8,379.7 77.44,379.7 77.44,388.08 
		77.93,388.08 77.93,379.7 80.57,379.7 80.57,388.6 	"/>
	<path fill="#D42F1A" d="M84.23,381.66H83.7v6.42h0.53V381.66z M86.87,388.6l-1.5,1.44h-4.31V379.7h4.23l1.59,1.46V388.6z"/>
	<path fill="#D42F1A" d="M93.52,381.66H93v6.42h0.52V381.66z M96.16,388.6l-1.5,1.44h-2.77l-1.53-1.44v-7.44l1.53-1.46h2.65
		l1.62,1.46V388.6z"/>
	<polygon fill="#D42F1A" points="102.44,388.6 100.92,390.04 98.18,390.04 96.67,388.6 96.67,379.7 99.31,379.7 99.31,388.08 
		99.8,388.08 99.8,379.7 102.44,379.7 	"/>
	<polygon fill="#D42F1A" points="107.27,381.66 105.51,381.66 105.51,383.6 106.98,383.6 106.98,385.56 105.51,385.56 
		105.51,388.08 107.37,388.08 107.37,390.04 102.94,390.04 102.94,379.7 107.27,379.7 	"/>
	<polygon fill="#D42F1A" points="113.51,383.06 111.02,383.06 111.02,381.66 110.5,381.66 110.5,383.74 112.04,383.88 
		113.66,385.34 113.66,388.6 112.16,390.04 109.37,390.04 107.86,388.6 107.86,386.68 110.5,386.68 110.5,388.08 111.02,388.08 
		111.02,385.95 109.56,385.82 107.93,384.38 107.93,381.16 109.37,379.7 112.04,379.7 113.51,381.16 113.51,383.06 	"/>
	<polygon fill="#D42F1A" points="119.14,381.66 117.94,381.66 117.94,390.04 115.3,390.04 115.3,381.66 114.03,381.66 114.03,379.7 
		119.14,379.7 	"/>
	<path fill="#D42F1A" d="M123.3,382.66h1.4v-0.35c0-1.68,0.61-2.62,2.79-2.62c0.48,0,0.74,0.01,0.98,0.03v1.67h-0.7
		c-0.84,0-1.03,0.33-1.03,0.91v0.37h1.74v1.75h-1.74v5.64h-2.04v-5.64h-1.4V382.66z"/>
	<path fill="#D42F1A" d="M129.58,382.77l1.59-0.12l0.21,0.81c0.31-0.47,1.21-0.85,2.36-0.89v1.96c-1.74,0.01-2.11,0.69-2.11,1.85
		v3.66h-2.05V382.77z"/>
	<path fill="#D42F1A" d="M122.34,389.03c0-0.06-0.01-0.13-0.02-0.19s-0.03-0.13-0.05-0.19c-0.02-0.06-0.05-0.12-0.09-0.17
		c-0.03-0.05-0.07-0.11-0.12-0.15c-0.04-0.05-0.09-0.09-0.15-0.13c-0.05-0.04-0.11-0.07-0.17-0.1c-0.06-0.03-0.12-0.05-0.18-0.06
		c-0.06-0.02-0.13-0.02-0.19-0.03c-0.06,0-0.13,0-0.19,0.01c-0.06,0.01-0.13,0.02-0.19,0.05c-0.06,0.02-0.12,0.05-0.18,0.08
		s-0.11,0.07-0.16,0.11c-0.05,0.04-0.09,0.09-0.13,0.14c-0.04,0.05-0.07,0.11-0.1,0.16c-0.03,0.06-0.05,0.12-0.07,0.18
		s-0.03,0.13-0.04,0.19c-0.01,0.06-0.01,0.13,0,0.19c0.01,0.06,0.02,0.13,0.04,0.19s0.04,0.12,0.07,0.18
		c0.03,0.06,0.06,0.11,0.1,0.16c0.04,0.05,0.08,0.1,0.13,0.14s0.1,0.08,0.16,0.11s0.11,0.06,0.18,0.08
		c0.06,0.02,0.12,0.04,0.19,0.05c0.06,0.01,0.13,0.01,0.19,0.01c0.06,0,0.13-0.01,0.19-0.03c0.06-0.02,0.12-0.04,0.18-0.06
		c0.06-0.03,0.11-0.06,0.17-0.1c0.05-0.04,0.1-0.08,0.15-0.13c0.04-0.05,0.08-0.1,0.12-0.15s0.06-0.11,0.09-0.17
		c0.02-0.06,0.04-0.12,0.05-0.19S122.34,389.09,122.34,389.03"/>
</g>
<g>
	<circle fill="#FBBD33" stroke="cmyk(0%, 0%, 0%, 100%)" stroke-miterlimit="10" cx="82.98" cy="17.26" r="16.86"/>
	<circle fill="#FBBD33" stroke="cmyk(0%, 0%, 0%, 100%)" stroke-miterlimit="10" cx="55.63" cy="17.26" r="16.86"/>
	<g>
		<path fill="cmyk(0%, 0%, 0%, 100%)" d="M72.85,13.35h3.44c0.64-4.96,3-7.64,7.96-7.64c2.68,0,4.05,0.41,5.51,1.17l-1.34,2.45c-1.11-0.61-2.36-0.93-4.08-0.93
			c-3.44,0-4.84,1.87-5.31,4.96h7.29v2.42h-7.5v2.13h7.5v2.42h-7.29c0.5,3.27,1.93,5.11,5.25,5.11c1.52,0,2.83-0.23,4.17-1.05
			l1.43,2.25c-1.6,0.99-3.24,1.4-5.75,1.4c-5.02,0-7.23-2.83-7.85-7.7h-3.44V17.9h3.24v-2.13h-3.24L72.85,13.35L72.85,13.35z"/>
		<path fill="cmyk(0%, 0%, 0%, 100%)" d="M50.63,7.58v5.52h9.18V7.58H50.63z M55.2,15.97l-0.07,0.11
			c-0.46,0.7-1.89,2.86-2.09,3.52c-0.24,0.79-0.21,1.71,0.17,2.33c0.4,0.65,1.28,1.08,2.02,1.05c0.74,0.03,1.62-0.41,2.01-1.06
			c0.38-0.62,0.4-1.55,0.16-2.33c-0.21-0.66-1.64-2.81-2.11-3.5L55.2,15.97z M64.81,12.74c-0.26,0.02-0.45,0.26-0.43,0.52l0.11,1.12
			c0.02,0.26,0.26,0.45,0.52,0.43c0.26-0.02,0.45-0.26,0.43-0.52l-0.11-1.12C65.3,12.9,65.07,12.71,64.81,12.74z M50.73,5.44h8.97
			c1.06,0,1.93,0.87,1.93,1.93v8.03c0.28,0.07,0.55,0.17,0.8,0.31c0.47,0.27,0.84,0.67,1.01,1.27c0.15,0.55,0.25,1,0.35,1.44
			c0.16,0.74,0.31,1.42,0.64,2.21c0.27,0.64,0.62,1.25,1.03,1.71c0.33,0.37,0.69,0.63,1.04,0.71c0.32,0.08,0.64,0.1,0.9,0.04
			c0.12-0.03,0.23-0.08,0.31-0.16c0.08-0.08,0.15-0.2,0.19-0.36c0.08-0.32,0.06-0.77-0.1-1.39c-0.37-1.5-1.53-3.51-2.28-4.82
			c-0.22-0.38-0.4-0.7-0.53-0.96l-0.96,0.22c-0.34-1.43-0.88-3.1,0.58-4.02l-0.9-2.94l0.54-0.25c1.94,2.47,2.78,3.27,2.59,6.55
			l-0.56,0.13c0.1,0.18,0.22,0.39,0.35,0.62c0.78,1.37,1.99,3.47,2.41,5.15c0.21,0.83,0.22,1.49,0.1,2c-0.1,0.42-0.29,0.75-0.55,0.99
			c-0.25,0.25-0.56,0.4-0.9,0.48c-0.48,0.12-1.01,0.08-1.51-0.04c-0.63-0.15-1.2-0.55-1.7-1.1c-0.51-0.57-0.95-1.3-1.27-2.07
			c-0.38-0.91-0.54-1.64-0.71-2.43c-0.1-0.44-0.2-0.89-0.33-1.36c-0.06-0.22-0.21-0.38-0.41-0.49c-0.05-0.03-0.1-0.06-0.16-0.08v8.56
			h1.38v2.41H47.42v-2.41h1.38V7.37C48.8,6.31,49.67,5.44,50.73,5.44z"/>
		</g>
</g>
<g id="TXT">
	<g fill="cmyk(0%, 0%, 0%, 100%)">
		<text transform="matrix(0.9 0 0 1 10.8032 51.6716)" font-family="'UtopiaStd-BlackHeadline'" font-size="12px">Le carburant le moins</text>
		<text transform="matrix(0.9 0 0 1 10.102 65.6716)" font-family="'UtopiaStd-BlackHeadline'" font-size="12px">cher prs de chez vous</text>
	</g>
	<g fill="cmyk(0%, 0%, 0%, 100%)">
		<text transform="matrix(0.9 0 0 1 40.9152 81.6716)" font-family="'Helvetica'" font-size="9.8px"> Sud Ouest </text>
		<text transform="matrix(0.9 0 0 1 21.257 92.6706)" font-family="'Helvetica'" font-size="9.8px">vous indique les stations</text>
		<text transform="matrix(0.9 0 0 1 33.716 103.6716)" font-family="'Helvetica'" font-size="9.8px">les moins chres.</text>
	</g>
	<g fill="cmyk(0%, 0%, 0%, 100%)">
		<text transform="matrix(0.84 0 0 1 4.4011 390.0002)" font-family="'Helvetica'" font-size="10px">Tous les prix sur</text>
		<text transform="matrix(0.82 0 0 1 56.7175 407.8196)" font-family="'Helvetica-Oblique'" font-size="8px">Donnes extraites du site </text>
		<text transform="matrix(0.82 0 0 1 56.7175 415.8196)" font-family="'Helvetica-Oblique'" font-size="8px">prix-carburants.gouv.fr </text>
		<text transform="matrix(0.82 0 0 1 56.7175 423.8196)" font-family="'Helvetica-Oblique'" font-size="8px">(releves hier soir, tarifs </text>
		<text transform="matrix(0.82 0 0 1 56.7175 431.8196)" font-family="'Helvetica-Oblique'" font-size="8px">renseigns par les grants</text>
		<text transform="matrix(0.82 0 0 1 56.7175 439.8176)" font-family="'Helvetica-Oblique'" font-size="8px">des stations-service)</text>
		<text transform="matrix(0.82 0 0 1 116.8674 439.8176)" font-family="'Helvetica-Oblique'" font-size="8px">   </text>
	</g>
	<g>
		<text transform="matrix(1 0 0 1 6.2335 123.3537)" fill="#FFFFFF" font-family="'Helvetica'" font-size="10px">Gazole</text>
		<text transform="matrix(1 0 0 1 6.2326 167.491)" fill="#FFFFFF" font-family="'Helvetica'" font-size="10px">SP98</text>
		<text transform="matrix(0.9 0 0 1 6.2326 211.5266)" fill="#FFFFFF" font-family="'Helvetica'" font-size="10px">SP95-E10</text>
		<text transform="matrix(1 0 0 1 6.2326 255.6643)" fill="#FFFFFF" font-family="'Helvetica'" font-size="10px">SP95</text>
		<text transform="matrix(1 0 0 1 6.2326 299.7141)" fill="#FFFFFF" font-family="'Helvetica'" font-size="10px">E85</text>
		<text transform="matrix(1 0 0 1 6.2326 343.8518)" fill="#FFFFFF" font-family="'Helvetica'" font-size="10px">GPLc</text>
	</g>
</g>
</svg>
 