<?xml version="1.0" encoding="utf-8"?>
<!-- Generator: Adobe Illustrator 21.1.0, SVG Export Plug-In . SVG Version: 6.00 Build 0)  -->
<svg version="1.1" id="Calque_1" xmlns="http://www.w3.org/2000/svg" xmlns:xlink="http://www.w3.org/1999/xlink" x="0px" y="0px"
	 viewBox="0 0 50.3 8.5" style="enable-background:new 0 0 50.3 8.5;" xml:space="preserve">
<metadata><?xpacket begin="﻿" id="W5M0MpCehiHzreSzNTczkc9d"?>
<x:xmpmeta xmlns:x="adobe:ns:meta/" x:xmptk="Adobe XMP Core 5.6-c137 79.159768, 2016/08/11-13:24:42        ">
   <rdf:RDF xmlns:rdf="http://www.w3.org/1999/02/22-rdf-syntax-ns#">
      <rdf:Description rdf:about=""/>
   </rdf:RDF>
</x:xmpmeta>
                                                                                                    
                                                                                                    
                                                                                                    
                                                                                                    
                                                                                                    
                                                                                                    
                                                                                                    
                                                                                                    
                                                                                                    
                                                                                                    
                                                                                                    
                                                                                                    
                                                                                                    
                                                                                                    
                                                                                                    
                                                                                                    
                                                                                                    
                                                                                                    
                                                                                                    
                                                                                                    
                           
<?xpacket end="w"?></metadata>
<style type="text/css">
	.st0{fill:#FFFFFF;}
	.st1{fill:#1D1D1B;}
	.st2{fill:#D42E1A;stroke:#D42F1A;stroke-miterlimit:10;}
	.st3{fill:#D42E1A;}
</style>
<rect class="st0" width="50.3" height="8.5"/>
<g>
	<rect x="1.5" y="1.2" class="st1" width="6.8" height="6.1"/>
	<rect x="1.5" y="1.2" class="st2" width="6.8" height="6.1"/>
	<polygon class="st0" points="1.9,2.5 1.9,2.5 2.7,1.8 4.1,1.8 4.8,2.5 4.8,3.5 3.5,3.5 3.5,2.8 3.3,2.8 3.3,3.8 4.1,4 4.8,4.6 
		4.8,6.3 4.1,6.9 2.6,6.9 1.9,6.3 1.9,5.4 3.3,5.4 3.3,6.1 3.5,6.1 3.5,4.9 2.8,4.9 1.9,4.2 	"/>
	<polygon class="st0" points="5.1,2.5 5.1,2.5 5.8,1.7 7.2,1.7 8,2.5 8,6.3 7.3,6.9 5.8,6.9 5.1,6.3 	"/>
	<rect x="6.4" y="2.7" class="st3" width="0.3" height="3.3"/>
	<path class="st1" d="M11,6.4h0.6V2.8H11V6.4z M11,2.3h0.6V1.6H11V2.3z"/>
	<path class="st1" d="M12.8,2.8h0.5l0.1,0.3c0.2-0.2,0.5-0.4,1.3-0.4c1.2,0,1.3,0.6,1.3,1.5v2.2h-0.6V4.3c0-0.6-0.1-1-0.9-1
		c-0.9,0-1.1,0.5-1.1,1.1v2h-0.6V2.8z"/>
	<path class="st1" d="M16.8,2.8h0.7V2.5c0-0.7,0.2-1.2,1.2-1.2h0.4v0.6h-0.3c-0.5,0-0.6,0.3-0.6,0.6v0.3h0.9v0.6h-0.9v3.1h-0.7V3.4
		h-0.7V2.8z"/>
	<path class="st1" d="M19.6,4.6c0-1.2,0.5-1.9,1.8-1.9s1.8,0.7,1.8,1.9s-0.5,1.9-1.8,1.9S19.6,5.8,19.6,4.6 M22.5,4.6
		c0-0.8-0.3-1.3-1.2-1.3c-0.9,0-1.2,0.5-1.2,1.3s0.3,1.3,1.2,1.3C22.2,5.9,22.5,5.5,22.5,4.6"/>
	<path class="st1" d="M25,5c-0.1,0.1-0.1,0.1-0.1,0.2c0,0.2,0.2,0.2,0.7,0.2c1.4,0,1.8,0.2,1.8,1s-0.5,1.1-1.8,1.1
		c-1.2,0-1.7-0.2-1.7-0.9c0-0.4,0.2-0.8,0.7-0.9c-0.1-0.1-0.2-0.2-0.2-0.4c0-0.2,0.1-0.4,0.2-0.5c-0.3-0.2-0.4-0.5-0.4-0.9
		c0-0.8,0.5-1.2,1.6-1.2c0.1,0,0.2,0,0.2,0l1.4-0.2V3h-0.6c0.3,0.2,0.5,0.4,0.5,0.9c0,0.8-0.5,1.2-1.6,1.2C25.3,5.1,25.1,5.1,25,5
		 M26.7,6.5c0-0.4-0.3-0.5-1.2-0.5c-1,0-1.1,0.2-1.1,0.5c0,0.4,0.3,0.5,1.1,0.5C26.5,7.1,26.7,6.9,26.7,6.5 M26.5,3.9
		c0-0.5-0.3-0.6-0.9-0.6c-0.7,0-0.9,0.2-0.9,0.6c0,0.5,0.3,0.7,0.9,0.7S26.5,4.4,26.5,3.9"/>
	<path class="st1" d="M28.3,2.8h0.5l0.1,0.4c0.1-0.3,0.6-0.5,1.2-0.5v0.6c-0.9,0-1.2,0.5-1.2,1.1v1.9h-0.6V2.8z"/>
	<path class="st1" d="M30.5,5.4c0-1,0.6-1.3,2.4-1.3h0.2c0-0.5-0.1-0.8-0.9-0.8c-0.5,0-0.8,0.2-1.1,0.3l-0.3-0.5
		c0.2-0.2,0.8-0.4,1.5-0.4c1.2,0,1.5,0.4,1.5,1.5v1.3c0,0.4,0,0.4,0.4,0.4v0.6c0,0-0.1,0-0.3,0c-0.4,0-0.5-0.1-0.6-0.4
		c-0.2,0.3-0.6,0.5-1.4,0.5C30.8,6.5,30.5,6,30.5,5.4 M33.1,4.8V4.6h-0.2c-1.5,0-1.8,0.2-1.8,0.7c0,0.4,0.2,0.6,0.8,0.6
		C32.8,5.9,33.1,5.6,33.1,4.8"/>
	<path class="st1" d="M35,2.8h0.5l0.1,0.4c0.2-0.3,0.6-0.5,1.4-0.5c1.2,0,1.6,0.8,1.6,1.9S38.3,6.5,37,6.5c-0.8,0-1.1-0.1-1.3-0.4
		v1.5h-0.6V2.8H35z M37.9,4.6c0-0.8-0.2-1.3-1.1-1.3c-0.9,0-1.2,0.3-1.2,1.3s0.3,1.3,1.2,1.3C37.7,5.9,37.9,5.4,37.9,4.6"/>
	<path class="st1" d="M39.5,1.3h0.6v1.8c0.1-0.2,0.5-0.4,1.3-0.4c1.2,0,1.3,0.6,1.3,1.5v2.2h-0.6V4.3c0-0.6-0.1-1-0.9-1
		c-0.9,0-1.1,0.5-1.1,1.1v2h-0.6V1.3z"/>
	<path class="st1" d="M43.8,1.6h0.7v0.8h-0.6V1.6H43.8z M43.8,2.8h0.7v3.7h-0.6V2.8H43.8z"/>
	<path class="st1" d="M45.4,4.6c0-1.1,0.3-1.9,1.8-1.9s1.6,1,1.5,2.2H46C46,5.6,46.3,6,47.2,6c0.6,0,0.9-0.2,1.2-0.4L48.7,6
		c-0.4,0.3-0.8,0.5-1.5,0.5C45.7,6.5,45.4,5.7,45.4,4.6 M46.1,4.3h2.1c0-0.6-0.1-1-1-1C46.4,3.3,46.1,3.7,46.1,4.3"/>
</g>
</svg>
