<?xml version="1.0" encoding="utf-8"?>
<!-- Generator: Adobe Illustrator 24.0.1, SVG Export Plug-In . SVG Version: 6.00 Build 0)  -->
<svg version="1.1" id="Calque_1" xmlns="http://www.w3.org/2000/svg" xmlns:xlink="http://www.w3.org/1999/xlink" x="0px" y="0px"
	 viewBox="0 0 650 341" style="enable-background:new 0 0 650 341;" xml:space="preserve">
<path style="fill:#B4D799;" d="M48.3,337.5c-3,0-5.4-2.4-5.4-5.4V7.4c0-3,2.4-5.4,5.4-5.4h554.6c3,0,5.4,2.4,5.4,5.4v324.7
	c0,3-2.4,5.4-5.4,5.4C602.9,337.5,48.3,337.5,48.3,337.5z"/>
<path style="fill:none;stroke:#DFC287;stroke-width:1.074;stroke-miterlimit:10;" d="M48.3,337.5c-3,0-5.4-2.4-5.4-5.4V7.4
	c0-3,2.4-5.4,5.4-5.4h554.6c3,0,5.4,2.4,5.4,5.4v324.7c0,3-2.4,5.4-5.4,5.4C602.9,337.5,48.3,337.5,48.3,337.5z"/>
<rect x="87.4" y="14" style="fill:#9AC774;" width="33.6" height="311.5"/>
<rect x="150.6" y="14" style="fill:#9AC774;" width="33.6" height="311.5"/>
<rect x="213.9" y="14" style="fill:#9AC774;" width="33.6" height="311.5"/>
<rect x="277" y="14" style="fill:#9AC774;" width="33.6" height="311.5"/>
<rect x="340.3" y="14" style="fill:#9AC774;" width="33.6" height="311.5"/>
<rect x="403.6" y="14" style="fill:#9AC774;" width="33.6" height="311.5"/>
<rect x="466.7" y="14" style="fill:#9AC774;" width="33.6" height="311.5"/>
<rect x="530" y="14" style="fill:#9AC774;" width="33.6" height="311.5"/>
<g>
	<line style="fill:none;stroke:#FFFFFF;stroke-width:2.1481;stroke-miterlimit:10;" x1="326.1" y1="323" x2="326.1" y2="15.7"/>
	<line style="fill:none;stroke:#FFFFFF;stroke-width:2.1481;stroke-miterlimit:10;" x1="520.1" y1="323" x2="520.1" y2="15.7"/>
	<line style="fill:none;stroke:#FFFFFF;stroke-width:2.1481;stroke-miterlimit:10;" x1="132.8" y1="323" x2="132.8" y2="15.7"/>
	<g>
		<path style="fill:#9AC774;" d="M57.7,15.8h536.6v307.9H57.7V15.8 M54.5,12.6v3.2v307.9v3.2h3.2h536.6h3.2v-3.2v-308v-3.2h-3.2
			H57.7h-3.2V12.6z"/>
		
			<rect x="57.7" y="15.7" style="fill:none;stroke:#FFFFFF;stroke-width:2.1481;stroke-miterlimit:10;" width="536.7" height="308"/>
	</g>
</g>
<g>
	<g>
		<g>
			<line style="fill:none;stroke:#FFFFFF;stroke-width:1.074;stroke-miterlimit:10;" x1="594.3" y1="309.8" x2="590.6" y2="309.8"/>
			
				<line style="fill:none;stroke:#FFFFFF;stroke-width:1.074;stroke-miterlimit:10;stroke-dasharray:7.4527,7.4527;" x1="583.1" y1="309.8" x2="65.3" y2="309.8"/>
			<line style="fill:none;stroke:#FFFFFF;stroke-width:1.074;stroke-miterlimit:10;" x1="61.5" y1="309.8" x2="57.7" y2="309.8"/>
		</g>
	</g>
	<g>
		<g>
			<line style="fill:none;stroke:#FFFFFF;stroke-width:1.074;stroke-miterlimit:10;" x1="72.6" y1="323.6" x2="72.6" y2="319.9"/>
			
				<line style="fill:none;stroke:#FFFFFF;stroke-width:1.074;stroke-miterlimit:10;stroke-dasharray:7.6467,7.6467;" x1="72.6" y1="312.1" x2="72.6" y2="25.5"/>
			<line style="fill:none;stroke:#FFFFFF;stroke-width:1.074;stroke-miterlimit:10;" x1="72.6" y1="21.6" x2="72.6" y2="17.8"/>
		</g>
	</g>
	<g>
		<g>
			<line style="fill:none;stroke:#FFFFFF;stroke-width:1.074;stroke-miterlimit:10;" x1="268.3" y1="323.6" x2="268.3" y2="319.9"/>
			
				<line style="fill:none;stroke:#FFFFFF;stroke-width:1.074;stroke-miterlimit:10;stroke-dasharray:7.6467,7.6467;" x1="268.3" y1="312.1" x2="268.3" y2="25.5"/>
			<line style="fill:none;stroke:#FFFFFF;stroke-width:1.074;stroke-miterlimit:10;" x1="268.3" y1="21.6" x2="268.3" y2="17.8"/>
		</g>
	</g>
	<g>
		<g>
			<line style="fill:none;stroke:#FFFFFF;stroke-width:1.074;stroke-miterlimit:10;" x1="382.3" y1="323.6" x2="382.3" y2="319.9"/>
			
				<line style="fill:none;stroke:#FFFFFF;stroke-width:1.074;stroke-miterlimit:10;stroke-dasharray:7.6467,7.6467;" x1="382.3" y1="312.1" x2="382.3" y2="25.5"/>
			<line style="fill:none;stroke:#FFFFFF;stroke-width:1.074;stroke-miterlimit:10;" x1="382.3" y1="21.6" x2="382.3" y2="17.8"/>
		</g>
	</g>
	<g>
		<g>
			<line style="fill:none;stroke:#FFFFFF;stroke-width:1.074;stroke-miterlimit:10;" x1="577" y1="323.6" x2="577" y2="319.9"/>
			
				<line style="fill:none;stroke:#FFFFFF;stroke-width:1.074;stroke-miterlimit:10;stroke-dasharray:7.6467,7.6467;" x1="577" y1="312.1" x2="577" y2="25.5"/>
			<line style="fill:none;stroke:#FFFFFF;stroke-width:1.074;stroke-miterlimit:10;" x1="577" y1="21.6" x2="577" y2="17.8"/>
		</g>
	</g>
	<g>
		<g>
			<line style="fill:none;stroke:#FFFFFF;stroke-width:1.074;stroke-miterlimit:10;" x1="594.3" y1="29.9" x2="590.6" y2="29.9"/>
			
				<line style="fill:none;stroke:#FFFFFF;stroke-width:1.074;stroke-miterlimit:10;stroke-dasharray:7.4527,7.4527;" x1="583.1" y1="29.9" x2="65.3" y2="29.9"/>
			<line style="fill:none;stroke:#FFFFFF;stroke-width:1.074;stroke-miterlimit:10;" x1="61.5" y1="29.9" x2="57.7" y2="29.9"/>
		</g>
	</g>
	<line style="fill:none;stroke:#FFFFFF;stroke-width:1.074;stroke-miterlimit:10;" x1="71.9" y1="280.5" x2="56.8" y2="280.5"/>
	<line style="fill:none;stroke:#FFFFFF;stroke-width:1.074;stroke-miterlimit:10;" x1="153.9" y1="280.5" x2="119.2" y2="280.5"/>
	<line style="fill:none;stroke:#FFFFFF;stroke-width:1.074;stroke-miterlimit:10;" x1="286.7" y1="280.5" x2="254.3" y2="280.5"/>
	<line style="fill:none;stroke:#FFFFFF;stroke-width:1.074;stroke-miterlimit:10;" x1="345.8" y1="280.5" x2="309.6" y2="280.5"/>
	<line style="fill:none;stroke:#FFFFFF;stroke-width:1.074;stroke-miterlimit:10;" x1="399.7" y1="280.5" x2="365" y2="280.5"/>
	<line style="fill:none;stroke:#FFFFFF;stroke-width:1.074;stroke-miterlimit:10;" x1="539.4" y1="280.5" x2="506" y2="280.5"/>
	<line style="fill:none;stroke:#FFFFFF;stroke-width:1.074;stroke-miterlimit:10;" x1="594.3" y1="280.5" x2="579.8" y2="280.5"/>
	<line style="fill:none;stroke:#FFFFFF;stroke-width:1.074;stroke-miterlimit:10;" x1="71.9" y1="63.8" x2="56.8" y2="63.8"/>
	<line style="fill:none;stroke:#FFFFFF;stroke-width:1.074;stroke-miterlimit:10;" x1="153.9" y1="63.8" x2="119.2" y2="63.8"/>
	<line style="fill:none;stroke:#FFFFFF;stroke-width:1.074;stroke-miterlimit:10;" x1="286.7" y1="63.8" x2="254.3" y2="63.8"/>
	<line style="fill:none;stroke:#FFFFFF;stroke-width:1.074;stroke-miterlimit:10;" x1="345.8" y1="63.8" x2="309.6" y2="63.8"/>
	<line style="fill:none;stroke:#FFFFFF;stroke-width:1.074;stroke-miterlimit:10;" x1="399.7" y1="63.8" x2="365" y2="63.8"/>
	<line style="fill:none;stroke:#FFFFFF;stroke-width:1.074;stroke-miterlimit:10;" x1="539.4" y1="63.8" x2="506" y2="63.8"/>
	<line style="fill:none;stroke:#FFFFFF;stroke-width:1.074;stroke-miterlimit:10;" x1="594.3" y1="63.8" x2="579.8" y2="63.8"/>
</g>
<g style="opacity:0.5;">
	<g>
		<path style="fill:#4D4D4D;" d="M648,132.1v0.1c0,0.2,0,0.3,0,0.5c0,0.1,0,0.3-0.1,0.4c0,0.1-0.1,0.3-0.1,0.4
			c0,0.1-0.1,0.3-0.1,0.4c0,0.1-0.1,0.3-0.1,0.4c-0.1,0.1-0.1,0.3-0.2,0.4c-0.1,0.1-0.1,0.3-0.2,0.4c-0.1,0.1-0.1,0.3-0.2,0.4
			c-0.1,0.1-0.2,0.2-0.2,0.3c-0.1,0.1-0.2,0.2-0.3,0.3s-0.2,0.2-0.3,0.3s-0.2,0.2-0.3,0.3s-0.2,0.2-0.3,0.2
			c-0.1,0.1-0.2,0.1-0.3,0.2c-0.1,0.1-0.2,0.1-0.3,0.2c-0.1,0-0.2,0.1-0.4,0.1l-37.7,11v40.9l37.7,14.9c0.1,0,0.2,0.1,0.4,0.2
			c0.1,0.1,0.2,0.1,0.3,0.2c0.1,0.1,0.2,0.2,0.3,0.2c0.1,0.1,0.2,0.2,0.3,0.3s0.2,0.2,0.3,0.3s0.2,0.2,0.3,0.3s0.2,0.2,0.3,0.4
			c0.1,0.1,0.2,0.2,0.2,0.4c0.1,0.1,0.2,0.3,0.2,0.4c0.1,0.1,0.1,0.3,0.2,0.4s0.1,0.3,0.2,0.4c0.1,0.1,0.1,0.3,0.1,0.4
			s0.1,0.3,0.1,0.4s0.1,0.3,0.1,0.4s0,0.3,0.1,0.5c0,0.2,0,0.3,0,0.5v0.1v0.1v0.1v0.1c0,0.2,0,0.3-0.1,0.5c0,0.1-0.1,0.3-0.1,0.4
			c0,0.1-0.1,0.3-0.1,0.4c-0.1,0.1-0.1,0.2-0.2,0.4c-0.1,0.1-0.1,0.2-0.2,0.3s-0.1,0.2-0.2,0.3c-0.1,0.1-0.2,0.2-0.3,0.3
			s-0.2,0.1-0.3,0.2c-0.1,0.1-0.2,0.1-0.3,0.2c-0.1,0-0.2,0.1-0.3,0.1s-0.2,0.1-0.3,0.1s-0.2,0-0.4,0c-0.1,0-0.2,0-0.4,0
			c-0.1,0-0.2,0-0.4-0.1c-0.1,0-0.3-0.1-0.4-0.1c-0.1,0-0.3-0.1-0.4-0.2l-50.5-23.4c-0.1,0-0.1-0.1-0.2-0.1c-0.1,0-0.1-0.1-0.1-0.1
			l-0.1-0.1c0,0-0.1-0.1-0.1-0.2c0-0.1-0.1-0.1-0.1-0.2s-0.1-0.1-0.1-0.2c0-0.1-0.1-0.1-0.1-0.2c0-0.1-0.1-0.1-0.1-0.2
			c0-0.1-0.1-0.2-0.1-0.2c0-0.1-0.1-0.2-0.1-0.2c0-0.1,0-0.2-0.1-0.3c0-0.1,0-0.2-0.1-0.3c0-0.1,0-0.2,0-0.3s0-0.2,0-0.3
			s0-0.2,0-0.3s0-0.2,0-0.3v-0.1V186v-0.1v-0.1c0-0.1,0-0.2,0-0.3s0-0.2,0-0.3s0-0.2,0.1-0.3c0-0.1,0-0.2,0.1-0.2
			c0-0.1,0.1-0.2,0.1-0.2c0-0.1,0.1-0.1,0.1-0.2c0-0.1,0.1-0.1,0.1-0.2c0-0.1,0.1-0.1,0.1-0.2c0-0.1,0.1-0.1,0.1-0.1l0.1-0.1
			l0.1-0.1l0.1-0.1c0.1,0,0.1,0,0.2,0c0.1,0,0.1,0,0.2,0c0.1,0,0.1,0,0.2,0c0.1,0,0.1,0,0.2,0l9.3,3.8v-38.2l-9.3,2.7
			c-0.1,0-0.1,0-0.2,0c-0.1,0-0.1,0-0.2,0s-0.1,0-0.2,0c-0.1,0-0.1,0-0.2-0.1l-0.1-0.1l-0.1-0.1l-0.1-0.1c0,0-0.1-0.1-0.1-0.2
			c0-0.1-0.1-0.1-0.1-0.2c0-0.1-0.1-0.1-0.1-0.2c0-0.1-0.1-0.1-0.1-0.2c0-0.1-0.1-0.2-0.1-0.2c0-0.1,0-0.2-0.1-0.3
			c0-0.1,0-0.2-0.1-0.3c0-0.1,0-0.2,0-0.3s0-0.2,0-0.3v-0.1V149v-0.1v-0.1c0-0.1,0-0.2,0-0.3s0-0.2,0-0.3s0-0.2,0-0.3s0-0.2,0-0.3
			s0-0.2,0.1-0.3c0-0.1,0-0.2,0.1-0.2c0-0.1,0.1-0.2,0.1-0.2c0-0.1,0.1-0.2,0.1-0.2c0-0.1,0.1-0.1,0.1-0.2c0-0.1,0.1-0.1,0.1-0.2
			c0-0.1,0.1-0.1,0.1-0.2c0-0.1,0.1-0.1,0.1-0.2c0-0.1,0.1-0.1,0.1-0.1l0.1-0.1l0.1-0.1c0.1,0,0.1,0,0.2-0.1l50.5-18
			c0.1,0,0.3-0.1,0.4-0.1s0.3-0.1,0.4-0.1c0.1,0,0.2,0,0.4,0c0.1,0,0.2,0,0.4,0c0.1,0,0.2,0,0.4,0.1c0.1,0,0.2,0.1,0.3,0.1
			s0.2,0.1,0.3,0.2s0.2,0.1,0.3,0.2s0.2,0.2,0.3,0.2c0.1,0.1,0.2,0.2,0.3,0.3s0.2,0.2,0.2,0.3c0.1,0.1,0.1,0.2,0.2,0.3
			c0.1,0.1,0.1,0.2,0.2,0.4c0.1,0.1,0.1,0.3,0.1,0.4s0.1,0.3,0.1,0.4c0,0.2,0,0.3,0.1,0.5v0.1v1V132.1"/>
	</g>
</g>
<path style="fill:#FFFFFF;" d="M632.4,109.3c0.4,0.2,0.9,0.6,1.1,1.3c0.3,0.6,0.4,1.4,0.5,2.4c0,0.1,0,0.1,0,0.2s0,0.1,0,0.2
	s0,0.1,0,0.2s0,0.1,0,0.2c0,1-0.1,1.8-0.3,2.8s-0.5,1.8-0.9,2.8c-0.3,0.9-0.8,1.6-1.3,2.4c-0.4,0.6-1,1.3-1.5,1.7l-30.5,23.7V192
	l30.5,23.7c0.5,0.4,1.1,1,1.5,1.7c0.4,0.6,0.9,1.5,1.3,2.4c0.3,0.9,0.6,1.8,0.9,2.8s0.3,1.9,0.3,2.8c0,0.1,0,0.1,0,0.2s0,0.1,0,0.2
	c0,0.1,0,0.1,0,0.2c0,0.1,0,0.1,0,0.2c-0.1,1-0.2,1.7-0.5,2.4c-0.3,0.6-0.6,1.1-1.1,1.3c-0.4,0.2-1,0.3-1.5,0.1
	c-0.5-0.1-1.1-0.5-1.6-1.1l-37.8-36.4c-0.1-0.1-0.2-0.3-0.3-0.5s-0.2-0.5-0.3-0.9c-0.1-0.3-0.1-0.8-0.2-1.1c0-0.4-0.1-0.8-0.1-1.2
	v-0.1v-0.1v-0.1v-0.1c0-0.4,0-0.9,0.1-1.2s0.1-0.6,0.2-0.9c0.1-0.2,0.2-0.4,0.3-0.4c0.1-0.1,0.2-0.1,0.4,0l5.5,4.3v-40.9l-5.5,4.3
	c-0.1,0.1-0.2,0.1-0.4,0c-0.1-0.1-0.2-0.2-0.3-0.4s-0.2-0.5-0.2-0.9c-0.1-0.3-0.1-0.8-0.1-1.2V151v0v-0.1v-0.1c0-0.4,0-0.9,0.1-1.2
	c0-0.4,0.1-0.8,0.2-1.1c0.1-0.3,0.2-0.6,0.3-0.9c0.1-0.2,0.2-0.4,0.3-0.5l37.8-36.4c0.5-0.5,1.1-0.9,1.6-1.1
	C631.5,109,631.9,109,632.4,109.3z"/>
<g style="opacity:0.5;">
	<g>
		<path style="fill:#4D4D4D;" d="M1.9,132.1v-0.3v-1v-0.1c0.1-0.2,0.1-0.3,0.1-0.5c0-0.1,0.1-0.3,0.1-0.4s0-0.3,0.1-0.4
			c0.1-0.2,0.1-0.3,0.2-0.4c0.1-0.1,0.1-0.2,0.2-0.3c0-0.1,0.1-0.2,0.2-0.3s0.2-0.2,0.3-0.3c0.1,0,0.2-0.1,0.3-0.2s0.2-0.1,0.3-0.2
			s0.2-0.2,0.3-0.2s0.2-0.1,0.3-0.1c0.2-0.1,0.3-0.1,0.4-0.1c0.2,0,0.3,0,0.4,0c0.2,0,0.3,0,0.4,0c0.1,0,0.3,0.1,0.4,0.1
			s0.3,0.1,0.4,0.1l50.5,18c0.1,0.1,0.1,0.1,0.2,0.1l0.1,0.1l0.1,0.1c0,0,0.1,0,0.1,0.1c0,0.1,0.1,0.1,0.1,0.2
			c0,0.1,0.1,0.1,0.1,0.2c0,0.1,0.1,0.1,0.1,0.2c0,0.1,0.1,0.1,0.1,0.2c0,0,0.1,0.1,0.1,0.2c0,0,0.1,0.1,0.1,0.2
			c0.1,0,0.1,0.1,0.1,0.2c0.1,0.1,0.1,0.2,0.1,0.3s0,0.2,0,0.3s0,0.2,0,0.3s0,0.2,0,0.3s0,0.2,0,0.3v0.1v0.1v0.1v0.1
			c0,0.1,0,0.2,0,0.3s0,0.2,0,0.3c-0.1,0.1-0.1,0.2-0.1,0.3c-0.1,0.1-0.1,0.2-0.1,0.3c0,0-0.1,0.1-0.1,0.2c0,0.1-0.1,0.1-0.1,0.2
			c0,0.1-0.1,0.1-0.1,0.2c0,0.1-0.1,0.1-0.1,0.2c0,0.1-0.1,0.2-0.1,0.2l-0.1,0.1l-0.1,0.1l-0.1,0.1c-0.1,0.1-0.1,0.1-0.2,0.1
			c-0.1,0-0.1,0-0.2,0s-0.1,0-0.2,0c-0.1,0-0.1,0-0.2,0l-9.3-2.7v38.2l9.3-3.8c0.1,0,0.1,0,0.2,0c0.1,0,0.1,0,0.2,0
			c0.1,0,0.1,0,0.2,0c0.1,0,0.1,0,0.2,0l0.1,0.1l0.1,0.1l0.1,0.1c0,0,0.1,0,0.1,0.1c0,0.1,0.1,0.1,0.1,0.2c0,0.1,0.1,0.1,0.1,0.2
			c0,0.1,0.1,0.1,0.1,0.2c0,0,0.1,0.1,0.1,0.2c0.1,0,0.1,0.1,0.1,0.2c0.1,0.1,0.1,0.2,0.1,0.3s0,0.2,0,0.3s0,0.2,0,0.3v0.1v0.1v0.1
			v0.1c0,0.1,0,0.2,0,0.3s0,0.2,0,0.3s0,0.2,0,0.3s0,0.2,0,0.3c-0.1,0.1-0.1,0.2-0.1,0.3c-0.1,0.1-0.1,0.2-0.1,0.3
			c0,0-0.1,0.1-0.1,0.2c0,0-0.1,0.1-0.1,0.2c0,0.1-0.1,0.1-0.1,0.2c0,0.1-0.1,0.1-0.1,0.2c0,0.1-0.1,0.1-0.1,0.2s-0.1,0.1-0.1,0.2
			c0,0.1-0.1,0.2-0.1,0.2l-0.1,0.1c0,0,0,0.1-0.1,0.1c-0.1,0-0.1,0.1-0.2,0.1L6.3,213.1c-0.1,0.1-0.3,0.2-0.4,0.2
			c-0.1,0-0.3,0.1-0.4,0.1c-0.2,0.1-0.3,0.1-0.4,0.1c-0.2,0-0.3,0-0.4,0c-0.2,0-0.3,0-0.4,0s-0.2-0.1-0.3-0.1s-0.2-0.1-0.3-0.1
			c-0.1-0.1-0.2-0.1-0.3-0.2c-0.1-0.1-0.2-0.1-0.3-0.2s-0.2-0.2-0.3-0.3c-0.1-0.1-0.1-0.2-0.2-0.3s-0.1-0.2-0.2-0.3
			c-0.1-0.2-0.1-0.3-0.2-0.4c0-0.1-0.1-0.3-0.1-0.4c0-0.1-0.1-0.3-0.1-0.4c-0.1-0.2-0.1-0.3-0.1-0.5v-0.1v-0.1V210v-0.1
			c0-0.2,0-0.3,0-0.5C2,209.2,2,209,2,208.9s0.1-0.3,0.1-0.4s0.1-0.3,0.1-0.4s0-0.3,0.1-0.4c0.1-0.1,0.1-0.3,0.2-0.4
			s0.1-0.3,0.2-0.4c0-0.1,0.1-0.3,0.2-0.4c0-0.2,0.1-0.3,0.2-0.4c0.1-0.2,0.2-0.3,0.3-0.4s0.2-0.2,0.3-0.3s0.2-0.2,0.3-0.3
			s0.2-0.2,0.3-0.3c0.1,0,0.2-0.1,0.3-0.2c0.1-0.1,0.2-0.1,0.3-0.2c0.2-0.1,0.3-0.2,0.4-0.2L43,189.3v-40.9l-37.7-11
			c-0.2,0-0.3-0.1-0.4-0.1c-0.1-0.1-0.2-0.1-0.3-0.2c-0.1-0.1-0.2-0.1-0.3-0.2c-0.1,0-0.2-0.1-0.3-0.2s-0.2-0.2-0.3-0.3
			s-0.2-0.2-0.3-0.3s-0.2-0.2-0.3-0.3c0-0.1-0.1-0.2-0.2-0.3c-0.1-0.1-0.1-0.3-0.2-0.4c-0.1-0.1-0.1-0.3-0.2-0.4
			c-0.1-0.1-0.1-0.3-0.2-0.4c0-0.1-0.1-0.3-0.1-0.4c0-0.1-0.1-0.3-0.1-0.4c0-0.1-0.1-0.3-0.1-0.4c-0.1-0.1-0.1-0.3-0.1-0.4
			c0-0.2,0-0.3,0-0.5V132.1"/>
	</g>
</g>
<path style="fill:#FFFFFF;" d="M19,109.6c0.5,0.2,1.1,0.6,1.6,1.1l37.8,36.4c0.1,0.1,0.2,0.3,0.3,0.5c0.1,0.3,0.2,0.6,0.3,0.9
	c0.1,0.3,0.2,0.7,0.2,1.1c0.1,0.3,0.1,0.8,0.1,1.2v0.1v0.1v0v0.1c0,0.4,0,0.9-0.1,1.2c0,0.4-0.1,0.7-0.2,0.9s-0.2,0.3-0.3,0.4
	c-0.2,0.1-0.3,0.1-0.4,0l-5.5-4.3v40.9l5.5-4.3c0.2-0.1,0.3-0.1,0.4,0c0.1,0,0.2,0.2,0.3,0.4c0.1,0.3,0.1,0.6,0.2,0.9
	s0.1,0.8,0.1,1.2v0.1v0.1v0.1v0.1c0,0.4-0.1,0.8-0.1,1.2c-0.1,0.3-0.1,0.8-0.2,1.1c-0.1,0.4-0.2,0.7-0.3,0.9s-0.2,0.4-0.3,0.5
	l-37.8,36.4c-0.5,0.6-1.1,1-1.6,1.1c-0.5,0.2-1.1,0.1-1.5-0.1c-0.5-0.2-0.8-0.7-1.1-1.3c-0.3-0.7-0.4-1.4-0.5-2.4c0-0.1,0-0.1,0-0.2
	c0-0.1,0-0.1,0-0.2c0-0.1,0-0.1,0-0.2s0-0.1,0-0.2c0-0.9,0-1.8,0.3-2.8s0.6-1.9,0.9-2.8c0.4-0.9,0.9-1.8,1.3-2.4
	c0.4-0.7,1-1.3,1.5-1.7L50.4,192v-44.8l-30.5-23.7c-0.5-0.4-1.1-1.1-1.5-1.7c-0.5-0.8-1-1.5-1.3-2.4c-0.4-1-0.7-1.8-0.9-2.8
	s-0.3-1.8-0.3-2.8c0-0.1,0-0.1,0-0.2s0-0.1,0-0.2s0-0.1,0-0.2s0-0.1,0-0.2c0.1-1,0.2-1.8,0.5-2.4c0.2-0.7,0.7-1.1,1.1-1.3
	C18,109,18.4,109,19,109.6z"/>
</svg>
