<?xml version="1.0" encoding="utf-8"?>
<!-- Generator: Adobe Illustrator 24.0.1, SVG Export Plug-In . SVG Version: 6.00 Build 0)  -->
<svg version="1.1"
	 id="svg5620" inkscape:export-filename="/media/disk/※T h i n g S/UB SOFTWARE/Openclipart/mh_inksc_100511_NewTux.png" inkscape:export-xdpi="150.03999" inkscape:export-ydpi="150.03999" inkscape:output_extension="org.inkscape.output.svg.inkscape" inkscape:version="0.46" sodipodi:docname="mh_inksc_100511_NewTux.svg" sodipodi:version="0.32" xmlns:cc="http://creativecommons.org/ns#" xmlns:dc="http://purl.org/dc/elements/1.1/" xmlns:inkscape="http://www.inkscape.org/namespaces/inkscape" xmlns:rdf="http://www.w3.org/1999/02/22-rdf-syntax-ns#" xmlns:sodipodi="http://sodipodi.sourceforge.net/DTD/sodipodi-0.dtd" xmlns:svg="http://www.w3.org/2000/svg"
	 xmlns="http://www.w3.org/2000/svg" xmlns:xlink="http://www.w3.org/1999/xlink" x="0px" y="0px" viewBox="0 0 500 600"
	 style="enable-background:new 0 0 500 600;" xml:space="preserve">
<style type="text/css">
	.st0{fill:url(#path3355_1_);}
	.st1{fill:#010202;}
	.st2{fill:#010202;stroke:#010202;stroke-width:1.5625;}
	.st3{fill:url(#path3361_1_);}
	.st4{fill:url(#path3363_1_);}
	.st5{fill:url(#path3365_1_);}
	.st6{fill:url(#path3371_1_);}
	.st7{fill:url(#path3373_1_);}
	.st8{fill:url(#path3375_1_);}
	.st9{fill:url(#path3377_1_);}
	.st10{fill:url(#path3381_1_);}
	.st11{fill:url(#path3383_1_);}
	.st12{fill:url(#path3385_1_);}
	.st13{fill:url(#path3387_1_);}
	.st14{fill:url(#path3389_1_);stroke:#E68C40;stroke-width:7.8125;}
	.st15{fill:url(#path3391_1_);stroke:#E68C40;stroke-width:7.8125;}
	.st16{fill:url(#path3393_1_);}
	.st17{fill:url(#path3395_1_);}
	.st18{fill:url(#path3397_1_);stroke:#E68C40;stroke-width:4.6875;}
	.st19{fill:none;stroke:#E68C40;stroke-width:3.125;}
	.st20{fill:url(#path3401_1_);}
	.st21{fill:url(#path3403_1_);}
	.st22{fill:url(#path3405_1_);}
</style>
<sodipodi:namedview  bordercolor="#666666" borderopacity="1.0" gridtolerance="10.0" guidetolerance="10.0" id="base" inkscape:current-layer="svg5620" inkscape:cx="837.03841" inkscape:cy="362.33556" inkscape:guide-bbox="true" inkscape:pageopacity="0.0" inkscape:pageshadow="2" inkscape:window-height="728" inkscape:window-width="1280" inkscape:window-x="0" inkscape:window-y="24" inkscape:zoom="0.65866667" objecttolerance="10.0" pagecolor="#ffffff" showgrid="false" showguides="true">
	</sodipodi:namedview>
<defs>
	
		<inkscape:perspective  id="perspective5714" inkscape:persp3d-origin="312.5 : 250 : 1" inkscape:vp_x="0 : 375 : 1" inkscape:vp_y="0 : 1000 : 0" inkscape:vp_z="625 : 375 : 1" sodipodi:type="inkscape:persp3d">
		</inkscape:perspective>
</defs>
<g id="g6022">
	
		<radialGradient id="path3355_1_" cx="306.3095" cy="-743.5874" r="195.0719" gradientTransform="matrix(1.4818 0 0 -0.3968 -151.7242 365.7477)" gradientUnits="userSpaceOnUse">
		<stop  offset="0" style="stop-color:#3C2913;stop-opacity:0.6"/>
		<stop  offset="1" style="stop-color:#3C2913;stop-opacity:0"/>
	</radialGradient>
	<path id="path3355" class="st0" d="M591.2,660.8c0,42.7-129.4,77.4-289.1,77.4S13.1,703.5,13.1,660.8s129.4-77.4,289.1-77.4
		S591.2,618.1,591.2,660.8z"/>
	<path id="path3357" sodipodi:nodetypes="ccccccccc" class="st1" d="M143.9,577.5c-28-40.3-33.4-171.2,31.9-251.8
		c32.4-38.6,40.6-65.6,43.2-101.7c1.7-41.2-29.2-164.3,87.4-173.7c118-9.4,111.7,107.1,111,168.7c-0.6,52.1,1.8,57.3,28.3,97.8
		c49.1,74.5,81.4,227.2,27.2,296.6c-68.6,87-127.4,49.2-166.5,52.4C233.2,669.9,230.8,708.9,143.9,577.5z"/>
	<path id="path3359" sodipodi:nodetypes="cssccc" class="st2" d="M437.7,210.6c12.5,17.5,45.5,38.8,64.4,65.3
		c18.9,26.5-24.4,57.3-58.9,38.3c-25.7-14.1,1.1,70.2,24.2,62.8c147.3-64.1,25.1-126.2,18.3-185.1
		C540.4,67.4,400.5,152.8,437.7,210.6z"/>
	
		<linearGradient id="path3361_1_" gradientUnits="userSpaceOnUse" x1="185.5258" y1="346.2756" x2="179.5938" y2="254.1118" gradientTransform="matrix(1.4132 -7.965031e-02 4.119768e-02 -1.0714 31.3616 445.476)">
		<stop  offset="0" style="stop-color:#FFFFFF;stop-opacity:0.8"/>
		<stop  offset="1" style="stop-color:#FFFFFF;stop-opacity:0"/>
	</linearGradient>
	<path id="path3361" class="st3" d="M375.2,109.2c-1.2,30.9-35.2,57.9-76.1,60.2s-73-20.9-71.8-51.9c1.2-30.9,35.2-57.9,76.1-60.2
		C344.2,55,376.3,78.2,375.2,109.2z"/>
	
		<linearGradient id="path3363_1_" gradientUnits="userSpaceOnUse" x1="347.7695" y1="340.8859" x2="349.105" y2="375.5718" gradientTransform="matrix(1.0651 -6.167214e-02 -9.445851e-02 -1.6443 -83.5036 793.8371)">
		<stop  offset="0" style="stop-color:#FFEED8"/>
		<stop  offset="1" style="stop-color:#BDBEC2"/>
	</linearGradient>
	<path id="path3363" class="st4" d="M277.4,182.8c1.2,20.1-8.5,37-21.5,37.8c-13,0.8-24.5-14.9-25.7-35.1s8.5-37,21.5-37.8
		C264.7,147,276.2,162.7,277.4,182.8z"/>
	
		<linearGradient id="path3365_1_" gradientUnits="userSpaceOnUse" x1="-341.8397" y1="357.6865" x2="-342.6754" y2="389.4981" gradientTransform="matrix(-1.4785 4.042534e-02 -3.886407e-02 -1.9024 -157.7217 907.6002)">
		<stop  offset="0" style="stop-color:#FFEED8"/>
		<stop  offset="1" style="stop-color:#BDBEC2"/>
	</linearGradient>
	<path id="path3365" class="st5" d="M301,184.3c0.5,23.3,15.5,41.7,33.6,41.2s32.4-19.8,31.9-43s-15.5-41.7-33.6-41.2
		C314.8,141.8,300.6,161,301,184.3z"/>
	<path id="path3367" class="st1" d="M331.2,191.9c-0.3,12.8,6.2,23.1,14.4,23.2c8.2,0,15.1-10.3,15.4-23.1
		c0.3-12.8-6.2-23.1-14.4-23.2C338.4,168.7,331.5,179.1,331.2,191.9z"/>
	<path id="path3369" class="st1" d="M273,188.2c1,10.6-2.9,19.7-8.9,20.5c-5.9,0.7-11.6-7.3-12.6-17.8c-1-10.6,2.9-19.7,8.9-20.5
		C266.3,169.6,272,177.6,273,188.2z"/>
	
		<linearGradient id="path3371_1_" gradientUnits="userSpaceOnUse" x1="-1164.2227" y1="358.3521" x2="-1166.5228" y2="318.2628" gradientTransform="matrix(-0.3922 -2.976458e-02 5.731006e-02 -0.5825 -129.2854 347.1887)">
		<stop  offset="0" style="stop-color:#FFFFFF;stop-opacity:0.65"/>
		<stop  offset="1" style="stop-color:#FFFFFF;stop-opacity:0"/>
	</linearGradient>
	<path id="path3371" class="st6" d="M338.4,184.5c-0.7,7.1,2.6,13.2,7.4,13.6s9.3-5.1,10-12.2c0.7-7.1-2.6-13.2-7.4-13.6
		S339.1,177.4,338.4,184.5z"/>
	
		<linearGradient id="path3373_1_" gradientUnits="userSpaceOnUse" x1="1385.7958" y1="175.1359" x2="1383.2291" y2="136.0929" gradientTransform="matrix(0.2914 -3.333031e-02 -5.061034e-02 -0.4881 -132.5577 305.1802)">
		<stop  offset="0" style="stop-color:#FFFFFF;stop-opacity:0.65"/>
		<stop  offset="1" style="stop-color:#FFFFFF;stop-opacity:0"/>
	</linearGradient>
	<path id="path3373" class="st7" d="M269.5,182.6c0.6,6-1.8,11.1-5.3,11.6s-7-4.1-7.6-10.1c-0.6-6,1.8-11.1,5.3-11.6
		C265.5,172.1,268.9,176.6,269.5,182.6z"/>
	
		<linearGradient id="path3375_1_" gradientUnits="userSpaceOnUse" x1="430.7473" y1="102.1547" x2="430.7473" y2="236.9228" gradientTransform="matrix(1.0161 0 0 -1.5378 -128.6833 756.9039)">
		<stop  offset="0" style="stop-color:#FFEED8"/>
		<stop  offset="1" style="stop-color:#BDBEC2"/>
	</linearGradient>
	<path id="path3375" class="st8" d="M187.8,405.8c16-36.4,50.1-100.3,50.9-149.7c0-39.3,117.7-48.7,127.2-9.4
		c9.4,39.2,33.4,98.1,48.7,126.4c15.3,28.3,59.8,118.4,12.4,196.9c-42.7,69.6-172.2,124.6-241.3-9.4
		C162.3,514.1,166.5,456.4,187.8,405.8z"/>
	
		<linearGradient id="path3377_1_" gradientUnits="userSpaceOnUse" x1="418.9319" y1="206.7501" x2="421.244" y2="302.4968" gradientTransform="matrix(0.9028 -7.217411e-02 -0.1573 -2.004 -146.9128 1047.3429)">
		<stop  offset="0" style="stop-color:#FFEED8"/>
		<stop  offset="1" style="stop-color:#BDBEC2"/>
	</linearGradient>
	<path id="path3377" class="st9" d="M173.2,378.8c-13.7,25.9-42.2,94.2,27.3,131.5c74.8,39.6,74.5,121.2-15.4,82.4
		c-82.1-35.1-45.8-176.9-22.9-210.8C177.4,358.2,200,329.1,173.2,378.8z"/>
	<path id="path3379" class="st2" d="M185,349.4c-21.8,35.6-74.2,119.8-4.1,163.4c94.5,57.9,67.7,115.9-18.5,63.7
		C41,503.7,147.6,357,196.3,301.1C251.9,238.3,207,312.5,185,349.4z"/>
	
		<linearGradient id="path3381_1_" gradientUnits="userSpaceOnUse" x1="197.2185" y1="114.013" x2="197.7897" y2="-2.3136" gradientTransform="matrix(1.3995 0 0 -1.14 21.5399 499.0787)">
		<stop  offset="0" style="stop-color:#FFFFFF;stop-opacity:0.8"/>
		<stop  offset="1" style="stop-color:#FFFFFF;stop-opacity:0"/>
	</linearGradient>
	<path id="path3381" class="st10" d="M397.8,419.6c0,39.7-38.1,91.3-103.6,90.8c-67.5,0.6-96.3-51.1-96.3-90.8s44.8-71.9,99.9-71.9
		C353,347.7,397.8,379.9,397.8,419.6z"/>
	
		<linearGradient id="path3383_1_" gradientUnits="userSpaceOnUse" x1="227.5699" y1="165.9478" x2="228.3387" y2="112.7329" gradientTransform="matrix(1.2782 0 0 -0.9908 9.7198 450.3596)">
		<stop  offset="0" style="stop-color:#FFFFFF;stop-opacity:0.65"/>
		<stop  offset="1" style="stop-color:#FFFFFF;stop-opacity:0"/>
	</linearGradient>
	<path id="path3383" class="st11" d="M362.2,294.6c-0.7,41.2-27.5,50.9-61.4,50.9c-33.9,0-58.5-6.1-61.4-50.9
		c0-28.1,27.5-44.3,61.4-44.3C334.6,250.3,362.2,266.5,362.2,294.6z"/>
	
		<linearGradient id="path3385_1_" gradientUnits="userSpaceOnUse" x1="583.7271" y1="404.095" x2="583.7271" y2="315.5901" gradientTransform="matrix(0.7146 0 0 -2.1864 -258.9032 1201.95)">
		<stop  offset="0" style="stop-color:#FFFFFF;stop-opacity:0.65"/>
		<stop  offset="1" style="stop-color:#FFFFFF;stop-opacity:0"/>
	</linearGradient>
	<path id="path3385" class="st12" d="M157.2,357.8c22.1-33.7,68.8-85.5,8.7,7.3c-48.7,76.3-18,125.3-2.2,138.8
		c45.7,40.7,43.7,67.9,8,46.5C94.7,504.6,110.7,427.6,157.2,357.8z"/>
	
		<linearGradient id="path3387_1_" gradientUnits="userSpaceOnUse" x1="1147.0272" y1="432.4753" x2="1163.1193" y2="355.8545" gradientTransform="matrix(0.5992 7.948548e-02 0.2319 -1.9097 -321.0841 1079.0767)">
		<stop  offset="0" style="stop-color:#FFFFFF;stop-opacity:4.385965e-02"/>
		<stop  offset="0.4643" style="stop-color:#FFFFFF;stop-opacity:0.3596"/>
		<stop  offset="1" style="stop-color:#FFFFFF;stop-opacity:0"/>
	</linearGradient>
	<path id="path3387" class="st13" d="M462.2,399c-11.8-36.8-52.2-131.3,4.9-20c52.1,100.6-0.1,158.9-8.8,164.2
		c-8.7,5.3-37,14.5-26.4-6.7C442.5,515.2,487.1,478.2,462.2,399z"/>
	
		<linearGradient id="path3389_1_" gradientUnits="userSpaceOnUse" x1="134.1042" y1="-35.7822" x2="110.3604" y2="-116.0832" gradientTransform="matrix(1.2644 0 0 -1.2358 -21.4075 550.746)">
		<stop  offset="0" style="stop-color:#F6A344"/>
		<stop  offset="1" style="stop-color:#F3E600"/>
	</linearGradient>
	<path id="path3389" class="st14" d="M140.5,683.4c-50.6-26.8-124.1,5.2-97.4-67.6c5.3-16.5-8-41.3,0.7-57.4
		c10.2-19.6,32-15.3,45.1-28.3c12.9-13.6,21.1-37.1,45.1-33.4c24,3.6,39.9,33.1,56.7,69c12.4,25.8,56.2,62.1,53.3,90.9
		C240.6,701,190.2,709.4,140.5,683.4z"/>
	
		<linearGradient id="path3391_1_" gradientUnits="userSpaceOnUse" x1="-501.5723" y1="-127.0441" x2="-516.5629" y2="-234.593" gradientTransform="matrix(-1.18 0.4273 -0.4706 -1.1534 -212.1078 632.6172)">
		<stop  offset="0" style="stop-color:#F6A344"/>
		<stop  offset="1" style="stop-color:#F3E600"/>
	</linearGradient>
	<path id="path3391" class="st15" d="M491.3,670.9c37.1-45,119.4-35.7,63.9-97.4c-11.7-13.2-8.2-41.9-22.5-54
		c-17-14.8-35.7-2.7-52.9-10.4c-17.2-8.3-35.2-24.5-56.3-13c-21,11.5-23.3,41.4-25.3,80.6c-1.7,28.2-27.5,75.4-13.8,101.3
		C404.5,718.3,456,713,491.3,670.9z"/>
	
		<linearGradient id="path3393_1_" gradientUnits="userSpaceOnUse" x1="-615.1874" y1="-89.3848" x2="-550.8318" y2="-206.8796" gradientTransform="matrix(-0.9524 0.3464 -0.4208 -0.9487 -161.9206 606.9306)">
		<stop  offset="0" style="stop-color:#FFFFFF;stop-opacity:0.65"/>
		<stop  offset="1" style="stop-color:#FFFFFF;stop-opacity:0"/>
	</linearGradient>
	<path id="path3393" class="st16" d="M475.2,610.8c57.4-84.7,14.6-84.1,0.3-90.5c-14.4-6.9-29.6-20.2-46.5-10.8
		c-16.9,9.4-17.9,33.9-18.3,66c-0.6,23.1-20,61.6-8.3,83C416.3,683.6,450.2,647.2,475.2,610.8z"/>
	
		<linearGradient id="path3395_1_" gradientUnits="userSpaceOnUse" x1="227.9492" y1="13.9196" x2="235.3834" y2="-126.6395" gradientTransform="matrix(1.0038 -5.226007e-02 1.740863e-02 -1.0463 -87.1661 537.4002)">
		<stop  offset="0" style="stop-color:#FFFFFF;stop-opacity:0.65"/>
		<stop  offset="1" style="stop-color:#FFFFFF;stop-opacity:0"/>
	</linearGradient>
	<path id="path3395" class="st17" d="M128.8,623c-85.9-55.6-45.7-74.5-32.7-83.2c15.6-11.2,15.8-33,35-31
		c19.2,2,30.4,25.7,43.4,55.1c9.6,21.1,42.4,48.9,40,73.2C211.4,665.6,166,646.8,128.8,623z"/>
	
		<linearGradient id="path3397_1_" gradientUnits="userSpaceOnUse" x1="135.993" y1="193.6132" x2="136.7657" y2="118.3772" gradientTransform="matrix(1.5234 0 0 -1.0257 90.4643 406.8447)">
		<stop  offset="0" style="stop-color:#F6A344"/>
		<stop  offset="1" style="stop-color:#F3E600"/>
	</linearGradient>
	<path id="path3397" class="st18" d="M251.8,210.7c8.9-8.5,31-33.8,72.5-7.2c7.7,5,14,5.5,28.8,11.8c29.7,12.2,15.5,41.6-15.9,51.4
		c-13.4,4.4-25.7,20.7-50.2,19.3c-20.9-1.2-26.4-14.8-39.2-22.4c-22.8-12.9-26.2-30.3-13.9-39.6C246.2,214.8,251,211.4,251.8,210.7z
		"/>
	<path id="path3399" class="st19" d="M353.4,234.3c-12.4,0.7-39.2,27.6-67.6,27.6s-45.1-26.2-49.4-26.2"/>
	
		<linearGradient id="path3401_1_" gradientUnits="userSpaceOnUse" x1="414.7249" y1="115.9083" x2="414.2777" y2="32.2031" gradientTransform="matrix(0.7672 0 0 -0.4875 -29.266 257.4856)">
		<stop  offset="0" style="stop-color:#FFFFFF;stop-opacity:0.65"/>
		<stop  offset="1" style="stop-color:#FFFFFF;stop-opacity:0"/>
	</linearGradient>
	<path id="path3401" class="st20" d="M265.9,208.3c4.5-4,18.6-15.1,37.4-3.8c4,2.2,8,4.7,14.1,8c12,7,6.1,17.1-8.3,23.5
		c-6.5,2.7-17.3,8.6-25.5,8.2c-9.1-0.8-15-6.8-21.1-10.7c-11.1-7.3-10.4-13.2-5.3-18.2C261.1,212,265.5,208.7,265.9,208.3z"/>
	
		<linearGradient id="path3403_1_" gradientUnits="userSpaceOnUse" x1="1519.1132" y1="202.5469" x2="1519.1022" y2="122.4468" gradientTransform="matrix(0.2316 0.2343 -0.7144 0.7063 253.3313 -158.8392)">
		<stop  offset="0" style="stop-color:#FFFFFF;stop-opacity:0.65"/>
		<stop  offset="1" style="stop-color:#FFFFFF;stop-opacity:0"/>
	</linearGradient>
	<path id="path3403" sodipodi:nodetypes="ccscc" class="st21" d="M485.6,318.4c-15.3,8.2-67.9,3.7-5.6,7.7
		c49.4-2.9,55.6-52.3,54.9-57.8c-0.7-5.4-16.5-15.8-21.7-4.5C507.9,275.1,526.7,304,485.6,318.4z"/>
	
		<linearGradient id="path3405_1_" gradientUnits="userSpaceOnUse" x1="112.2681" y1="-333.5018" x2="-215.5327" y2="-357.1172" gradientTransform="matrix(7.610444e-03 -0.1876 -0.572 -2.320622e-02 276.4834 143.2917)">
		<stop  offset="0" style="stop-color:#FFFFFF;stop-opacity:0.65"/>
		<stop  offset="1" style="stop-color:#FFFFFF;stop-opacity:0"/>
	</linearGradient>
	<path id="path3405" sodipodi:nodetypes="ccscc" class="st22" d="M473.3,135c-9.6,2.4-24.8,13.2-7-0.7c28.8-13.2,39.6,1.3,20.6,41.3
		c-4.1,8.8-26.1,26.2-32.7,23.5C500.3,163.6,496.1,126.8,473.3,135z"/>
</g>
</svg>
